<svg xmlns="http://www.w3.org/2000/svg" xmlns:xlink="http://www.w3.org/1999/xlink" id="Layer_1" width="120.1" height="27.3" x="0" y="0" enable-background="new 0 0 120.1 27.3" version="1.0" viewBox="0 0 120.1 27.3" xml:space="preserve"><path d="M2.9,8.5H0V5.9h9.9v2.6H7v7H2.9V8.5z M24,15.5V5.9h4.8c0.9,1.7,1.7,3.5,2.3,4.8h0.1c-0.1-0.8-0.1-2.3-0.1-3.9V5.9h3.7v9.6	h-4.6c-0.7-1.3-2-4.3-2.6-5.6h-0.1c0.1,0.9,0.1,2,0.1,4.2v1.4H24z M45.6,11.9h-4.8v1h5.5l-0.5,2.6h-9V5.9h9.1v2.6h-5.1v0.9h4.8V11.9	z M54.6,5.9v9.6h-4.2V5.9H54.6z M56.5,15.5V5.9h4.8c0.9,1.7,1.7,3.5,2.3,4.8h0.1c-0.1-0.8-0.1-2.3-0.1-3.9V5.9h3.7v9.6h-4.6	c-0.7-1.3-2-4.3-2.6-5.6h-0.1c0.1,0.9,0.1,2,0.1,4.2v1.4H56.5z M72.6,12.6c0.1,0.4,0.3,0.8,1.1,0.8c0.6,0,0.9-0.2,0.9-0.5	c0-0.3-0.1-0.6-1.7-0.9c-3.7-0.7-4.1-2.1-4.1-3.3c0-1.8,1.6-3.1,4.8-3.1c2.9,0,4.8,1,5,3h-3.9c-0.1-0.4-0.3-0.7-0.9-0.7	c-0.5,0-0.7,0.2-0.7,0.4c0,0.3,0.4,0.5,1.5,0.7c3.5,0.6,4.4,1.8,4.4,3.3c0,2.1-1.9,3.4-5.1,3.4c-3.5,0-5-1.4-5.3-3.1H72.6z M84.3,5.9v9.6h-4.2V5.9H84.3z M96.8,15.5h-2.7C94,15.3,94,15,93.9,14.6c-0.6,0.7-1.5,1.1-3.2,1.1c-3.2,0-5-2-5-4.9	c0-2.6,1.5-5.2,5.9-5.2c2.9,0,4.9,1.2,5.3,3.2h-4.2C92.5,8.4,92.3,8,91.5,8c-1.2,0-1.4,1.3-1.4,2.6c0,1.5,0.4,2.7,1.5,2.7	c1,0,1.2-0.7,1.2-1v-0.1h-1.3V9.8h5.3V15.5z M98.5,5.9h4.2v3.3h2.2V5.9h4.2v9.6h-4.2v-3.7h-2.2v3.7h-4.2V5.9z M113.1,8.5h-2.9V5.9	h9.9v2.6h-2.9v7h-4.2V8.5z M15.8,0v17.4c0,0.8,0.3,1.3,1.1,1.3c0.9,0,1.1-0.7,1.1-1.3V0h4.2v17.3c0,2.6-1.4,4.2-5.4,4.2	c-3.9,0-5.2-1.6-5.2-4.2V0H15.8z M16.9,23.1c-1.2,0-2.1,0.9-2.1,2.1c0,1.2,0.9,2.1,2.1,2.1c1.2,0,2.1-0.9,2.1-2.1	C19,24.1,18.1,23.1,16.9,23.1z"/></svg>