<svg xmlns="http://www.w3.org/2000/svg" width="1300" height="443" viewBox="0 0 1300 443">
    <defs>
        <filter id="ujpcyiw4ga" width="124.5%" height="184.4%" x="-12.3%" y="-42.2%" filterUnits="objectBoundingBox">
            <feGaussianBlur in="SourceGraphic" stdDeviation="4.0016841 0"/>
        </filter>
        <filter id="oa14ecn8yb" width="124.5%" height="184.4%" x="-12.3%" y="-42.2%" filterUnits="objectBoundingBox">
            <feGaussianBlur in="SourceGraphic" stdDeviation="4.0016841 0"/>
        </filter>
        <filter id="o4qg873k9c" width="124.5%" height="184.4%" x="-12.3%" y="-42.2%" filterUnits="objectBoundingBox">
            <feGaussianBlur in="SourceGraphic" stdDeviation="4.0016841 0"/>
        </filter>
        <filter id="efa68wbiee" width="100%" height="100%" x="0%" y="0%" filterUnits="objectBoundingBox">
            <feGaussianBlur in="SourceGraphic" stdDeviation="0 0"/>
        </filter>
        <linearGradient id="6xbnooxxkd" x1="50.012%" x2="50.012%" y1="100.028%" y2="-.003%">
            <stop offset="0%" stop-color="gray" stop-opacity=".25"/>
            <stop offset="54%" stop-color="gray" stop-opacity=".12"/>
            <stop offset="100%" stop-color="gray" stop-opacity=".1"/>
        </linearGradient>
    </defs>
    <g fill="none" fill-rule="evenodd">
        <g>
            <g>
                <g>
                    <g fill-rule="nonzero">
                        <g>
                            <g transform="translate(-70 -236) translate(70 236) translate(9.028 49.513) translate(685.208 24.375) translate(132.91 .774)">
                                <ellipse cx="245.069" cy="328.094" fill="#BEC3C6" opacity=".314" rx="158.438" ry="11.736"/>
                                <path fill="#413F8D" d="M127.941 0L0 78.538s0 161.984 127.941 250.34c127.941-88.356 127.941-250.34 127.941-250.34L127.941 0z"/>
                                <path fill="#000" d="M128.705 0l-2.187 1.343v326.003c.726.512 1.452 1.024 2.187 1.532 127.94-88.356 127.94-250.34 127.94-250.34L128.706 0z" opacity=".1"/>
                            </g>
                            <path fill="#D9D9E8" d="M127.114 96.059c11.705.179 21.062 9.893 21.248 21.655l.003.357-.001 8.628h5.395c4.813.014 8.736 3.837 8.963 8.637l.01.414v43.438c-.013 4.853-3.803 8.81-8.563 9.04l-.41.011H99.896c-4.814-.015-8.738-3.837-8.967-8.637l-.01-.414V135.75c.015-4.854 3.806-8.81 8.567-9.041l5.79-.001.002-8.93c.017-5.654 2.213-11.073 6.113-15.118l.32-.325c4.1-4.078 9.644-6.337 15.403-6.276zm-.283 45.15c-3.336 0-6.231 2.322-6.982 5.6-.721 3.152.723 6.386 3.502 7.94l.34.179v15.654c0 .868.352 1.698.975 2.297.622.599 1.46.915 2.32.874 1.598-.118 2.85-1.395 2.976-2.977l.01-.282v-15.566c3-1.475 4.592-4.841 3.842-8.119-.751-3.278-3.646-5.6-6.983-5.6zm-.012-38.816c-8.322 0-15.088 6.717-15.256 15.067l-.003.318-.001 8.929 30.529-.007-.01-8.922c0-8.39-6.661-15.213-14.943-15.382l-.316-.003z" transform="translate(-70 -236) translate(70 236) translate(9.028 49.513) translate(685.208 24.375) translate(132.91 .774)"/>
                        </g>
                        <g>
                            <g>
                                <path fill="#B3B2D1" d="M0 0L0 46.092 170.749 46.092 170.749 0z" transform="translate(-70 -236) translate(70 236) translate(9.028 49.513) translate(685.208 24.375) translate(409.086 42.676)"/>
                                <g fill="#413F8D">
                                    <g>
                                        <g>
                                            <path d="M26.464 20.9c1.534.977 2.519 2.667 2.601 4.517l.006.253v2.472H17.952V25.67c0-1.945.997-3.747 2.61-4.77.875.572 1.889.88 2.953.88 1.056 0 2.076-.308 2.949-.88zm-17.94 0c1.534.977 2.508 2.667 2.59 4.517l.005.253v2.472H0V25.67c0-1.945 1.006-3.746 2.619-4.77.875.572 1.898.88 2.962.88 1.055 0 2.07-.308 2.943-.88zm14.99-7.435c1.764 0 3.2 1.4 3.2 3.12 0 1.72-1.436 3.12-3.2 3.12-1.766 0-3.202-1.4-3.202-3.12 0-1.72 1.436-3.12 3.201-3.12zm-17.93 0c1.766 0 3.202 1.4 3.202 3.12 0 1.72-1.436 3.12-3.201 3.12-1.765 0-3.201-1.4-3.201-3.12 0-1.72 1.436-3.12 3.2-3.12zM14.532 0c3.713 0 6.722 2.933 6.722 6.552 0 3.619-3.01 6.552-6.722 6.552-3.713 0-6.723-2.933-6.723-6.552C7.808 2.933 10.818 0 14.531 0zm.936 2.668h-1.863v3.884c0 .517.4.908.93.908h3.853V5.64h-2.92V2.668z" transform="translate(-70 -236) translate(70 236) translate(9.028 49.513) translate(685.208 24.375) translate(409.086 42.676) translate(9.542 7.845) translate(0 .455) translate(.248 .833)"/>
                                        </g>
                                        <path d="M61.269 25.043v3.923H46.203v-3.923h15.066zm52.731 0v3.923h-5.524v-3.923H114zm10.044 0v3.923h-5.524v-3.923h5.524zm-21.092 0v3.923H66.793v-3.923h36.159zm-10.546-7.845v3.922H77.339v-3.922h15.067zm-20.59 0v3.922H56.748v-3.922h15.066zm-20.089 0v3.922h-5.524v-3.922h5.524zm92.406 0v3.922h-5.525v-3.922h5.525zm-10.547 0v3.922H97.428v-3.922h36.158zm-10.044-7.846v3.923h-15.066V9.352h15.066zm20.59 0v3.923h-15.066V9.352h15.067zm-92.405 0v3.923h-5.524V9.352h5.524zm10.546 0v3.923H56.75V9.352h5.524zm41.683 0v3.923H67.798V9.352h36.158zM80.353.526V4.45H65.287V.526h15.066zm52.731 0V4.45h-5.524V.526h5.524zm10.044 0V4.45h-5.524V.526h5.524zm-21.595 0V4.45H85.375V.526h36.158z" filter="url(#ujpcyiw4ga)" transform="translate(-70 -236) translate(70 236) translate(9.028 49.513) translate(685.208 24.375) translate(409.086 42.676) translate(9.542 7.845) translate(0 .455)"/>
                                    </g>
                                </g>
                            </g>
                            <g transform="translate(-70 -236) translate(70 236) translate(9.028 49.513) translate(685.208 24.375) translate(409.086 42.676) translate(13.292 36.664)">
                                <path fill="#2F2E41" d="M49.286 187.605s0 34.855-7.934 43.997c0 0-1.7 4.571-2.267 6.285-.317.976-.695 1.93-1.133 2.857v2.286s-15.301-1.714-17.001-5.714l2.833-3.428s.567-.572 0-2.286c-.197-.38-.173-.839.063-1.196s.647-.556 1.07-.518l3.968-9.142-.567-37.712 2.833-51.996 24.369-1.143-6.234 57.71z"/>
                                <path fill="#2F2E41" d="M36.038 241.04s3.765 11.549 0 12.099c-3.764.55-36.57 1.1-36.031-3.3.537-4.4 11.293-3.85 11.293-3.85l11.294-7.15 13.444 2.2zM70.905 130.943s1.125 7.398-3.378 15.365c-4.502 7.967-1.688 34.714-1.688 34.714l39.963 35.284s-7.88 13.658-10.695 13.088c-2.814-.569-47.28-36.99-47.28-36.99L30.38 133.219l40.526-2.276z"/>
                                <path fill="#2F2E41" d="M104.22 216.841s12.548 2.983 10.852 6.592c-1.695 3.608-20.275 32.743-23.909 29.874-3.634-2.87 3.113-12.025 3.113-12.025l.153-13.821 9.79-10.62z"/>
                                <circle cx="49.234" cy="25.141" r="12.571" fill="#B2858C"/>
                                <path fill="#B2858C" d="M60.757 31.426l-.593 16.65-11.294 4.301s-1.108-17.048-2.671-17.993c-1.564-.945 14.558-2.958 14.558-2.958z"/>
                                <path fill="#F34E70" d="M52.865 36.316c-.123.15-.247.298-.377.436-3.025 1.34-6.507 1.273-9.482-.184-2.974-1.457-5.124-4.15-5.854-7.33l5.336-.954 10.375.979c-2.375 2.835-2.088 3.819.002 7.053z" transform="rotate(1 45.009 32.998)"/>
                                <path fill="#00A690" d="M45.28 53.638s15.435-15.435 19.437-14.863c4.002.571 4.002 2.286 4.002 3.43 0 1.143-1.144 1.714 0 2.286 1.143.572 2.286 0 2.286 1.715s10.29 18.865 6.86 37.73c-3.43 18.864-7.431 28.01-5.716 38.3 1.715 10.29.572 12.576.572 12.576s-42.877 3.43-43.448-.571c-.572-4.002 1.715-1.715-1.144-4.574-2.858-2.858-1.715-2.858-1.715-4.573 0-1.715 12.577-71.456 18.866-71.456z"/>
                                <path fill="#B2858C" d="M53.425 130.993s-7.28 17.04-12.74 12.927c-5.46-4.113 2.426-18.215 2.426-18.215l10.314 5.288z"/>
                                <path fill="#00A690" d="M68.216 53.53s13.088 1.56 8.215 26.569c-4.873 25.01-23.812 53.986-23.812 53.986l-12.812-6.374 16.711-34.193-3.9-21.443S50.39 51.792 68.217 53.53z"/>
                                <path fill="#000" d="M56.567 95.326L37.712 127.114 39.425 128.848zM67.043 109.992L52.377 134.085 57.364 134.085z" opacity=".2"/>
                                <path fill="#2F2E41" d="M55.264 35.618c-1.047-.564-2.264-.68-3.397-1.03-4.055-1.255-6.77-5.927-5.904-10.154.16-.542.232-1.107.213-1.673-.151-1.252-1.408-2.06-2.614-2.346-1.205-.287-2.488-.246-3.64-.707-1.778-.712-2.96-2.575-3.216-4.505-.184-1.954.243-3.917 1.22-5.61l.435 1.278c.664-.573 1.157-1.324 1.423-2.169 1.006.173 1.852.866 2.233 1.83.699.42.8-1.304 1.571-1.559.34-.043.683.043.964.242 1.555.74 3.363.108 5.031-.302 2.89-.707 5.901-.71 8.793-.01 1.92.466 3.821 1.28 5.196 2.724 1.075 1.244 1.9 2.69 2.43 4.257 1.475 3.78 2.448 7.87 1.962 11.909-.405 3.304-1.762 6.412-3.898 8.931-1.113 1.307-4.745 5.866-6.736 5.09-2.502-.978.882-4.607-2.066-6.196z"/>
                                <path fill="#00A690" d="M44.582 29.078s18.04-16.102 28.19-16.606c0 0-.513-2.475-6.44-7.054-1.964-1.517-6.994-2.195-10.066-2.324-3.112-.13-9.325 1.924-12.51 6.19-3.183 4.266.203 8.648.826 19.794z" transform="scale(-1 1) rotate(-13 0 521.56)"/>
                                <path fill="#000" d="M40.545 152.932L41.345 152.929 41.16 194.872 40.36 194.876z" opacity=".2" transform="rotate(-20.877 40.853 173.902)"/>
                                <circle cx="44.521" cy="54.996" r="1.571" fill="#D0CDE1"/>
                                <path fill="#D0CDE1" d="M46.092 56.567L39.807 78.566M38.152 79.613c.194 0 .365-.12.422-.298l7.498-23.248c.072-.223-.058-.46-.29-.528-.234-.07-.48.056-.552.279L37.73 79.066c-.041.128-.016.267.067.375.083.108.214.172.354.172z"/>
                            </g>
                        </g>
                        <g>
                            <g>
                                <path fill="#B3B2D1" d="M0 0L0 46.092 170.749 46.092 170.749 0z" transform="translate(-70 -236) translate(70 236) translate(9.028 49.513) translate(685.208 24.375) translate(0 55.972)"/>
                                <g fill="#413F8D">
                                    <g>
                                        <g>
                                            <path d="M9.387 15.053c.943 0 1.707.746 1.707 1.666v5.833c0 .46-.382.833-.854.833H8.534v3.388h.853c.472 0 .853.373.853.833 0 .461-.381.834-.853.834H5.973c-.471 0-.853-.373-.853-.834 0-.46.382-.833.853-.833h.854v-3.388H5.12c-.471 0-.853-.373-.853-.833v-5.833c0-.92.764-1.666 1.706-1.666zm13.767 0c.943 0 1.707.746 1.707 1.666v5.833c0 .46-.382.833-.853.833H22.3v3.388h.853c.472 0 .854.373.854.833 0 .461-.382.834-.854.834h-3.413c-.472 0-.853-.373-.853-.834 0-.46.381-.833.853-.833h.853v-3.388h-1.706c-.472 0-.854-.373-.854-.833v-5.833c0-.92.764-1.666 1.707-1.666zM2.56 16.719v3.333h-.853v7.554c0 .461-.382.834-.854.834-.471 0-.853-.373-.853-.834V17.553c0-.46.382-.834.853-.834H2.56zm25.714 0c.472 0 .854.373.854.834v10.053c0 .461-.382.834-.854.834-.471 0-.853-.373-.853-.834v-7.554h-.853V16.72zm-11.946 0v3.333H12.8V16.72h3.528zm-6.088-6.665c.943 0 1.707.746 1.707 1.666v1.667H5.12V11.72c0-.92.764-1.666 1.707-1.666zm12.061 0c.943 0 1.707.746 1.707 1.666v1.667H17.18V11.72c0-.92.764-1.666 1.707-1.666zM23.154 0c1.414 0 2.56 1.12 2.56 2.5v8.387c0 .143-.019.281-.043.417-.212-1.64-1.633-2.917-3.37-2.917h-3.413c-1.883 0-3.414 1.495-3.414 3.333v1.667h-1.82V11.72c0-1.838-1.531-3.333-3.414-3.333H6.827c-1.737 0-3.158 1.277-3.37 2.917-.024-.136-.044-.274-.044-.417V2.5c0-1.38 1.147-2.5 2.56-2.5z" transform="translate(-70 -236) translate(70 236) translate(9.028 49.513) translate(685.208 24.375) translate(0 55.972) translate(9.542 7.845) translate(0 .455) translate(.248 .833)"/>
                                        </g>
                                        <path d="M61.269 25.043v3.923H46.203v-3.923h15.066zm52.731 0v3.923h-5.524v-3.923H114zm10.044 0v3.923h-5.524v-3.923h5.524zm-21.092 0v3.923H66.793v-3.923h36.159zm-10.546-7.845v3.922H77.339v-3.922h15.067zm-20.59 0v3.922H56.748v-3.922h15.066zm-20.089 0v3.922h-5.524v-3.922h5.524zm92.406 0v3.922h-5.525v-3.922h5.525zm-10.547 0v3.922H97.428v-3.922h36.158zm-10.044-7.846v3.923h-15.066V9.352h15.066zm20.59 0v3.923h-15.066V9.352h15.067zm-92.405 0v3.923h-5.524V9.352h5.524zm10.546 0v3.923H56.75V9.352h5.524zm41.683 0v3.923H67.798V9.352h36.158zM80.353.526V4.45H65.287V.526h15.066zm52.731 0V4.45h-5.524V.526h5.524zm10.044 0V4.45h-5.524V.526h5.524zm-21.595 0V4.45H85.375V.526h36.158z" filter="url(#oa14ecn8yb)" transform="translate(-70 -236) translate(70 236) translate(9.028 49.513) translate(685.208 24.375) translate(0 55.972) translate(9.542 7.845) translate(0 .455)"/>
                                    </g>
                                </g>
                            </g>
                            <g transform="translate(-70 -236) translate(70 236) translate(9.028 49.513) translate(685.208 24.375) translate(0 55.972) translate(64.948 17.698)">
                                <ellipse cx="85.375" cy="260.314" fill="#BEC3C6" opacity=".314" rx="85.375" ry="6.809"/>
                                <path fill="#000" d="M82.255 234.65s-1.295 8.085-3.454 9.362c-2.158 1.277 11.224 4.256 11.224 4.256l2.159-12.767-9.93-.852z"/>
                                <path fill="#2F2E41" d="M98.768 138.276l4.939 5.76-2.245 19.938-1.796 39.434s3.592 34.118 0 35.004c-3.591.886-19.753.443-19.305-1.773.45-2.215.898-3.987 1.796-7.089.898-3.101-.898-14.178-.898-14.178l2.245-12.407-8.081-53.612 23.345-11.077zM82.663 242.376s-4.843-.886-5.283 0c-.44.886-8.807 10.189-10.128 10.189-1.32 0-11.008 8.86-.88 9.303 10.127.443 26.86-7.531 26.86-7.531s-2.463-11.273-2.333-10.73c.13.541-8.236.984-8.236-1.231z"/>
                                <path fill="#000" d="M77.518 221.93s12.653 13.917 13.105 15.264c.452 1.346 7.23 0 7.23 0l2.711-8.98-2.26-3.142-12.652-10.326-8.134 7.183z"/>
                                <path fill="#2F2E41" d="M94.37 233.483l-6.376 5.995s8.134 12.453 8.134 13.771c0 1.318.44 12.299 4.837 10.542 4.397-1.757 4.837-19.327 4.837-19.327s-.44-18.008-3.078-19.326c-2.638-1.318-8.42-.902-8.42-.902s3.583 8.808.065 9.247zM58.2 98.22s-2.23 7.142-2.677 8.928c-.446 1.785-3.123 6.695-3.123 14.283 0 7.588.893 16.515 0 17.408-.892.893-15.168 50.885-8.922 56.24 6.246 5.357 26.768 23.211 28.106 25.443 1.339 2.232 1.785 7.588 4.462 6.695 2.677-.892 12.938-9.82 13.384-11.605.446-1.785-5.8-4.91-5.8-4.91s-12.492-18.3-15.615-17.854c-3.123.446-2.676-2.232-2.23-3.57.446-1.34 1.338-2.233 0-2.233-1.339 0-.446-3.57 0-5.356.446-1.785 10.707-25.888 10.707-25.888l27.215-12.052s-1.339-32.584-11.154-41.511l-2.23-5.356S65.338 95.096 58.2 98.22z"/>
                                <path fill="#E9C3C3" d="M69.378 28.284s2.208 15.491-3.093 16.377c-5.3.885-9.718.442-9.718.885S69.82 59.71 69.82 59.71l12.369-.885L93.23 46.874s-10.16-1.77-10.16-7.967c0-6.197-.441-10.623-.441-10.623H69.378z"/>
                                <path fill="#000" d="M69.378 28.284s2.208 15.491-3.093 16.377c-5.3.885-9.718.442-9.718.885S69.82 59.71 69.82 59.71l12.369-.885L93.23 46.874s-10.16-1.77-10.16-7.967c0-6.197-.441-10.623-.441-10.623H69.378z" opacity=".1"/>
                                <circle cx="75.947" cy="20.427" r="14.142" fill="#E9C3C3"/>
                                <path fill="#FFF" d="M86.492 34.687c-.19.182-.38.364-.578.532-4.639 1.639-9.979 1.557-14.54-.225-4.56-1.78-7.857-5.071-8.975-8.958l8.18-1.167 15.909 1.196c-3.642 3.466-3.201 4.668.004 8.622z" transform="rotate(-7 74.445 30.63)"/>
                                <path fill="#E1C825" d="M64.938 41.902s-17.389 2.239-18.726 8.06c-1.338 5.822 8.917 42.094 10.255 45.228 1.337 3.135.891 5.374.891 5.374 4.082-3.066 9.285-4.209 14.268-3.135 8.472 1.792 20.51.896 20.51.896s4.013-16.569 4.904-18.36c.892-1.791 4.459-11.643 4.459-14.33 0-2.687 5.35-13.882 5.35-13.882s-2.675-8.06-12.484-7.612c0 0-4.278-1.924-5.483-.514s-7.893 7.679-16.364 4.992c-8.472-2.687-7.58-6.717-7.58-6.717z"/>
                                <path fill="#E1C825" d="M50.975 51.33H46.46L43.997 86.49s9.03 2.67 10.262.89c1.232-1.78-3.284-36.051-3.284-36.051zM97.421 51.33l8.6 2.173s6.337 22.165 6.79 22.6c.452.434.905 3.042.905 3.042s0 .435.905 1.739c.905 1.303 1.358 1.705.452 3.443-.905 1.739-1.357-.401-.452 1.337.905 1.739.452 6.52.452 6.52s-2.263-8.258-10.41-6.085l-5.431-23.47-1.81-11.3z"/>
                                <path fill="#776161" d="M60.919 8.83c-2.784 4.916-3.411 10.738-3.796 16.38-.164 2.42-.288 4.904.426 7.22.753 2.444 2.43 4.926 1.57 7.334-.831 2.328-3.611 3.26-5.163 5.18-1.316 1.627-1.646 3.856-1.532 5.95.114 2.092.619 4.147.767 6.238.306 4.594-1.105 9.136-3.957 12.74 6.653-.259 13.765-3.223 16.57-9.289.84-1.814 1.247-3.798 2.004-5.648.856-2.092 2.148-3.986 2.96-6.096 1.223-3.184 1.289-6.68 1.34-10.094.03-2.043.052-4.14-.652-6.057-1.549-4.22-6.366-6.946-6.844-11.418-.082-.473-.013-.96.199-1.39.225-.315.497-.592.807-.821 3.008-2.668 2.512-8.315 6.093-10.133 1.606-.816 3.543-.53 5.268-.013 1.916.574 3.827 1.462 5.074 3.033 2.51 3.162 1.52 7.73.743 11.699-1.126 5.757-1.525 11.633-1.188 17.49.022.937.159 1.868.409 2.77.461 1.465 1.444 2.696 2.186 4.039 1.513 2.761 2.004 5.971 1.386 9.061-.548 2.69-1.909 5.553-.71 8.02.526.953 1.261 1.773 2.148 2.401 3.914 3.083 8.883 4.993 11.793 9.045.501-3.31-.455-6.64-1.16-9.913-.706-3.272-1.136-6.834.315-9.848.636-1.322 1.609-2.472 2.129-3.845 1.201-3.17-.23-6.646-1.1-9.924-.622-2.573-1.07-5.186-1.344-7.82l-.896-7.11c-.742-5.879-1.518-11.876-4.086-17.21C87.837.751 76.882-2.982 67.073 2.587c-2.57 1.49-4.696 3.647-6.154 6.243z"/>
                                <g transform="rotate(-90 63.376 8.38)">
                                    <rect width="21.245" height="9.841" fill="#CDD0DB" rx=".862"/>
                                    <rect width="21.245" height="9.841" fill="#000" opacity=".05" rx=".862"/>
                                    <rect width="21.245" height="9.841" x=".616" fill="#413F8D" rx=".209"/>
                                    <ellipse cx="17.027" cy="4.745" fill="#9DA7C0" rx="1" ry="1.054"/>
                                </g>
                                <path fill="#E9C3C3" d="M47.235 84.038s-2.866 8.146.478 8.146c3.343 0 9.552-4.978 10.03-9.05.478-4.074 9.075-19.46 2.866-18.102-6.21 1.358-9.075 12.67-9.075 12.67l-4.299 6.336z"/>
                                <path fill="#E1C825" d="M44.298 82.826l-1.295 3.789s-.863 12.314 4.316 11.84C52.5 97.983 57.9 84.328 57.9 84.328s-3.597-7.293-5.488-9.686c-.97-1.23-3.053 6.479-4.225 6.8-3.453.948-3.889 1.385-3.889 1.385z"/>
                                <path fill="#A387B2" d="M93.191 50.282L78.566 98.182 98.509 102.659 113.135 56.102z"/>
                                <path fill="#E9C3C3" d="M112.366 83.92l2.767 4.7s1.218 8.801-4.98 8.801c-6.2 0-15.056-8.55-15.056-8.55s-4.428-1.8-7.085-1.35c-2.657.45-17.27 0-11.07-7.65 6.199-7.65 16.826 0 16.826 0l11.07 5.4 5.757-3.15 1.771 1.8z"/>
                                <path fill="#E1C825" d="M108.904 79.434l-4.15 6.945s9.545 1.302 10.375 3.473c.83 2.17-3.735-11.286-3.735-11.286l-2.49.868z"/>
                                <path fill="#E1C825" d="M93.768 79.87l-1.309 7.076.655 1.048 4.307 4.19 7.333 5.237c1.92 1.243 3.987 1.864 6.2 1.864 3.318 0 3.318 1.656 4.276-2.911.638-3.045.987-5.14 1.047-6.285-.06-3.841-.409-5.762-1.047-5.762h-10.476l-10.986-4.456z"/>
                            </g>
                        </g>
                    </g>
                    <g>
                        <g fill-rule="nonzero">
                            <g>
                                <path fill="#B3B2D1" d="M0 0L0 46.092 170.749 46.092 170.749 0z" transform="translate(-70 -236) translate(70 236) translate(9.028 49.513) translate(246.717 139.331) translate(192.603 36.664)"/>
                                <g fill="#413F8D">
                                    <g>
                                        <path d="M26.712 21.733c1.534.977 2.518 2.667 2.601 4.517l.006.253v2.472h-11.12v-2.472c0-1.946.998-3.747 2.61-4.77.876.572 1.89.88 2.954.88 1.056 0 2.076-.308 2.949-.88zm-17.94 0c1.533.977 2.507 2.667 2.59 4.517l.005.253v2.472H.247v-2.472c0-1.945 1.007-3.747 2.62-4.77.875.572 1.897.88 2.961.88 1.056 0 2.07-.308 2.944-.88zm14.99-7.435c1.764 0 3.2 1.4 3.2 3.12 0 1.72-1.436 3.12-3.2 3.12-1.766 0-3.202-1.4-3.202-3.12 0-1.72 1.436-3.12 3.201-3.12zm-17.93 0c1.766 0 3.202 1.4 3.202 3.12 0 1.72-1.436 3.12-3.201 3.12-1.766 0-3.202-1.4-3.202-3.12 0-1.72 1.437-3.12 3.202-3.12zM14.78.833c3.712 0 6.722 2.933 6.722 6.552 0 3.618-3.01 6.552-6.722 6.552-3.713 0-6.723-2.934-6.723-6.552 0-3.619 3.01-6.552 6.723-6.552zm.936 2.668h-1.863v3.884c0 .516.4.908.93.908h3.853v-1.82h-2.92V3.501z" transform="translate(-70 -236) translate(70 236) translate(9.028 49.513) translate(246.717 139.331) translate(192.603 36.664) translate(9.542 7.845) translate(0 .455)"/>
                                        <path d="M61.269 25.043v3.923H46.203v-3.923h15.066zm52.731 0v3.923h-5.524v-3.923H114zm10.044 0v3.923h-5.524v-3.923h5.524zm-21.092 0v3.923H66.793v-3.923h36.159zm-10.546-7.845v3.922H77.339v-3.922h15.067zm-20.59 0v3.922H56.748v-3.922h15.066zm-20.089 0v3.922h-5.524v-3.922h5.524zm92.406 0v3.922h-5.525v-3.922h5.525zm-10.547 0v3.922H97.428v-3.922h36.158zm-10.044-7.846v3.923h-15.066V9.352h15.066zm20.59 0v3.923h-15.066V9.352h15.067zm-92.405 0v3.923h-5.524V9.352h5.524zm10.546 0v3.923H56.75V9.352h5.524zm41.683 0v3.923H67.798V9.352h36.158zM80.353.526V4.45H65.287V.526h15.066zm52.731 0V4.45h-5.524V.526h5.524zm10.044 0V4.45h-5.524V.526h5.524zm-21.595 0V4.45H85.375V.526h36.158z" filter="url(#o4qg873k9c)" transform="translate(-70 -236) translate(70 236) translate(9.028 49.513) translate(246.717 139.331) translate(192.603 36.664) translate(9.542 7.845) translate(0 .455)"/>
                                    </g>
                                </g>
                            </g>
                            <g transform="translate(-70 -236) translate(70 236) translate(9.028 49.513) translate(246.717 139.331) translate(313.07)">
                                <circle cx="36.14" cy="36.14" r="36.14" fill="#413F8D"/>
                                <g fill="#B3B2D1">
                                    <path d="M2.034 34.985h36.333c.715-.003 1.375-.349 1.74-.91.364-.561.38-1.256.042-1.83L21.991 1.416C21.637.815 20.95.44 20.201.44c-.749 0-1.437.375-1.791.977L.243 32.244c-.34.576-.322 1.273.045 1.835.367.561 1.03.906 1.746.906zm20.288-5.922h-4.783v-4.441h4.783v4.441zm0-6.909h-4.783v-8.39h4.783v8.39z" transform="translate(15.944 14.721)"/>
                                </g>
                            </g>
                            <g transform="translate(-70 -236) translate(70 236) translate(9.028 49.513) translate(246.717 139.331) matrix(-1 0 0 1 372.78 82.756)">
                                <path fill="#E9C3C3" d="M151.594 83.165l-3.761-3.397-2.381-.914c-1.784-2.011-2.164-.815-.939-3.185l14.16-17.926s4.046-8.8 10.452-5.215c6.406 3.585-5.394 9.452-5.394 9.452l-7.08 10.756.674 5.54-5.731 4.89z" transform="rotate(-87 157.415 67.417)"/>
                                <path fill="#BEC3C6" d="M371.878 134.086C364.915 153.029-.553 151.439 0 134.084c6.962-18.942 372.43-17.352 371.878.002z" opacity=".314"/>
                                <path fill="#000" d="M85.422 117.976L75.423 117.325 78.756 131.99 90.089 127.428z"/>
                                <path fill="#2F2E41" d="M176.479 90.795L153.406 68.09 140.222 78.441 114.182 110.162 117.149 114.836 148.792 93.133 170.217 121.515 190.653 111.164z"/>
                                <path fill="#000" d="M176.479 90.795L153.406 68.09 140.222 78.441 114.182 110.162 117.149 114.836 148.792 93.133 170.217 121.515 190.653 111.164z" opacity=".1"/>
                                <path fill="#E9C3C3" d="M179.13 106.548l-2.977 2.396-24.15-8.557-5.623-2.396-11.247 2.396s0-9.584 10.586-9.242l10.916 2.738 12.901 1.027 9.594 11.638z"/>
                                <path fill="#2F2E41" d="M200.081 129.518L192.792 134.085 184.179 134.085 144.095 119.403 85.46 129.844 83.803 117.445 137.47 94.279 184.511 109.614z"/>
                                <path fill="#000" d="M163.273 84.404l-.497.425c-2.211-1.961-3.93-3.051-5.157-3.271-1.228-.22-2.644.31-4.25 1.588l3.059-11.65c1.935-9.615 3.332-13.724 4.19-12.327 1.287 2.095 2.799.642 4.617 3.428 1.212 1.857 1.561 2.286 1.047 1.286.699 2.035.699 3.813 0 5.333-.698 1.52-1.27 2.787-1.714 3.8l-1.295 11.388z" transform="rotate(-66 160.087 71.866)"/>
                                <g transform="rotate(-109 97.101 -21.63)">
                                    <rect width="23.046" height="8.38" x=".427" y=".593" fill="#272655" rx=".862"/>
                                    <rect width="23.046" height="8.38" x=".427" y=".593" fill="#1A1938" opacity=".05" rx=".862"/>
                                    <rect width="23.046" height="8.38" x=".427" y=".593" fill="#413F8D" rx=".209"/>
                                    <circle cx="18.575" cy="4.849" r="1.048" fill="#272655"/>
                                </g>
                                <circle cx="185.939" cy="36.14" r="13.094" fill="#E9C3C3"/>
                                <path fill="#E9C3C3" d="M179.13 46.327l5.873 14.43 14.03-6.04s-4.568-11.41-4.568-11.746c0-.336-15.335 3.356-15.335 3.356z"/>
                                <path fill="#000" d="M215.269 110.637l-.974 2.98-4.672 21.236-5.006 1.327-3.67-4.645-7.341-5.31-5.34-8.627-4.578-7.585-1.428-2.37-10.306-20.005-13.053-13.786c-2.305-2.621-3.836-4.047-4.594-4.278-.758-.231-2.408.283-4.949 1.543l3.87-3.624 11.346.597h1.669l4.664-.673 3.755-2.619 9.68-7.685 5.927-1.234 8.522-4.55 3.49.568 12.014 9.955c3.07 8.254 4.642 16.985 4.641 25.786 0 7.81-1.237 15.571-3.667 22.999z"/>
                                <path fill="#2F2E41" d="M78.271 123.914s3.05-5.003 1.761-5.587c-1.287-.584-6.756-2.912-6.756-2.912l-8.02-2.573s-11.572-16.65-11.826-2.17c-.254 14.478 8.426 17.959 8.426 17.959s7.741 16.129 12.127 13.557c4.385-2.572 8.773-11.303 8.773-11.303s-7.908-4.115-4.485-6.971z"/>
                                <path fill="#000" d="M213.699 84.292L201.147 92.73 182.412 109.992 180.998 107.582 177.035 87.33 178.026 87.33 188.265 68.09z" opacity=".1"/>
                                <path fill="#000" d="M213.699 84.292L201.147 92.73 182.412 109.992 180.998 107.582 177.035 87.33 178.026 87.33 188.265 68.09z" opacity=".1"/>
                                <path fill="#000" d="M178.894 86.749L175.242 86.749 172.918 93.297 167.607 94.606 181.5 109.992 202.132 91.987 214.746 83.804 189.185 68.09z"/>
                                <path fill="#2F2E41" d="M174.294 26.73l-1.433.529c-.445-.29-.75-.74-.847-1.248-.096-.508.025-1.032.336-1.454l-2.648-.119c3.438-4.4 8.674-7.173 14.382-7.615 5.707-.442 11.338 1.489 15.465 5.303.12-.399 1.435.377 1.972 1.164.18-.649 1.412 2.49 1.848 4.708.201-.739.977.454.298 1.598.43-.06.625.998.291 1.588.471-.212.392 1.051-.119 1.896.672-.057-5.301 8.852-7.72 14.06-.702-3.102-1.492-6.367-3.757-8.677-.385-.393-.806-.75-1.227-1.107l-2.276-1.931c-2.647-2.245-5.055-5.016-8.58-5.856-2.424-.576-3.956-.706-2.635-3.33-1.193.478-2.308 1.19-3.511 1.634.016-.367.184-.777.16-1.144z"/>
                                <path fill="#F34E70" d="M189.172 2.524c3.088 0 5.591 2.51 5.591 5.606 0 .971-.246 1.885-.68 2.681 1.14.414 3.926 1.407 8.449 2.908 6.113 2.029 6.995 6.277 6.995 6.277-8.07.397-22.775 13.26-22.775 13.26-2.881-5.732-.982-14.031-.982-14.031l1.805-5.722c-2.31-.689-3.994-2.834-3.994-5.373 0-3.096 2.503-5.606 5.591-5.606z" transform="scale(-1 1) rotate(-13 0 1743.022)"/>
                                <circle cx="191.176" cy="38.235" r="2.619" fill="#E9C3C3"/>
                                <path fill="#000" d="M181.225 109.992L144.86 97.226c.489-.818.793-1.626.913-2.423.12-.798.12-2.02 0-3.667l23.26 3.143c3.522 4.216 6.189 7.335 8 9.356 1.813 2.02 3.21 4.14 4.19 6.357z"/>
                                <path fill="#00A690" d="M188.757 49.103c-.162.144-.324.289-.49.42-3.603.998-7.5.375-10.614-1.698-3.112-2.072-5.11-5.374-5.436-8.988l6.135-.209 11.493 2.714c-.19.168-.368.33-.534.487l-.316.307c-1.651 1.657-1.892 2.784-1.21 4.716l.135.36c.024.062.048.125.074.188l.163.39.28.629.32.684z"/>
                            </g>
                        </g>
                        <g>
                            <g fill-rule="nonzero">
                                <path fill="#413F8D" d="M164.467 14.902V346.51c.006 4.358-1.91 8.5-5.24 11.331-2.687 2.305-6.119 3.57-9.666 3.561H14.906c-2.969.004-5.87-.878-8.33-2.532C2.46 356.088 0 351.46 0 346.51V14.902C-.01 10.96 1.555 7.174 4.35 4.38 7.147 1.584 10.944.01 14.907 0h20.15v2.583c-.016 6.76 5.477 12.255 12.272 12.273h68.486c2.622.005 5.175-.835 7.277-2.394.425-.31.829-.648 1.207-1.013 2.425-2.317 3.793-5.52 3.787-8.866V0h21.476c3.963.008 7.76 1.583 10.556 4.378 2.796 2.795 4.36 6.581 4.35 10.524z" transform="translate(-70 -236) translate(70 236) translate(9.028 49.513) translate(237.145 .008)"/>
                                <path fill="#000" d="M164.464 14.902L0 294.341V346.51c0 6.82 3.885 11.784 11.655 14.892.023.017 6.594.017 5.85 0-20.529-.457 131.812-.168 132.056 0 12.168 0 14.903-12.582 14.903-12.582V14.902z" opacity=".1" transform="translate(-70 -236) translate(70 236) translate(9.028 49.513) translate(237.145 .008)"/>
                            </g>
                            <g>
                                <g>
                                    <g fill="#D9D9E8" transform="translate(-70 -236) translate(70 236) translate(9.028 49.513) translate(237.145 .008) translate(23.949 118.372) translate(.232)">
                                        <ellipse cx="90.787" cy="28.613" rx="6.809" ry="6.867"/>
                                        <ellipse cx="80.573" cy="97.286" rx="6.809" ry="6.867"/>
                                        <ellipse cx="7.944" cy="100.719" rx="7.944" ry="8.012"/>
                                        <ellipse cx="43.124" cy="53.793" rx="6.809" ry="6.867"/>
                                        <ellipse cx="66.955" cy="62.95" rx="4.539" ry="4.578"/>
                                        <ellipse cx="90.787" cy="28.613" rx="4.539" ry="4.578"/>
                                        <ellipse cx="110.079" cy="4.578" rx="4.539" ry="4.578"/>
                                        <ellipse cx="112.349" cy="35.481" rx="4.539" ry="4.578"/>
                                        <ellipse cx="105.54" cy="58.371" rx="4.539" ry="4.578"/>
                                        <ellipse cx="110.079" cy="81.262" rx="4.539" ry="4.578"/>
                                        <ellipse cx="80.573" cy="97.286" rx="4.539" ry="4.578"/>
                                        <ellipse cx="116.888" cy="111.02" rx="4.539" ry="4.578"/>
                                        <ellipse cx="73.764" cy="119.032" rx="4.539" ry="4.578"/>
                                        <ellipse cx="34.045" cy="99.575" rx="4.539" ry="4.578"/>
                                        <ellipse cx="7.944" cy="100.719" rx="4.539" ry="4.578"/>
                                        <ellipse cx="17.023" cy="81.262" rx="4.539" ry="4.578"/>
                                        <ellipse cx="12.483" cy="30.902" rx="4.539" ry="4.578"/>
                                        <ellipse cx="31.775" cy="26.324" rx="4.539" ry="4.578"/>
                                        <ellipse cx="45.393" cy="33.192" rx="4.539" ry="4.578"/>
                                        <ellipse cx="43.124" cy="53.793" rx="4.539" ry="4.578"/>
                                        <ellipse cx="71.495" cy="6.867" rx="4.539" ry="4.578"/>
                                    </g>
                                    <g stroke="#D9D9E8" stroke-width="2.095">
                                        <path d="M64.375 2.952L83.667 24.698M83.667 24.698L102.959.663M83.667 24.698L105.229 31.565" transform="translate(-70 -236) translate(70 236) translate(9.028 49.513) translate(237.145 .008) translate(23.949 118.372) translate(.232) translate(7.12 3.916)"/>
                                        <path stroke-linecap="square" d="M59.836 59.034L83.667 24.698M59.836 59.034L98.42 54.456" transform="translate(-70 -236) translate(70 236) translate(9.028 49.513) translate(237.145 .008) translate(23.949 118.372) translate(.232) translate(7.12 3.916)"/>
                                        <path d="M73.454 93.37L59.836 59.034M73.454 93.37L102.959 77.347M73.454 93.37L109.768 107.104M66.645 115.116L73.454 93.37M.824 96.804L59.836 59.034M.824 96.804L9.903 77.347M.824 97.948L26.925 95.659M36.004 49.878L5.363 26.987M36.004 49.878L24.656 22.409M36.004 49.878L38.274 29.276M36.004 49.878L59.836 59.034" transform="translate(-70 -236) translate(70 236) translate(9.028 49.513) translate(237.145 .008) translate(23.949 118.372) translate(.232) translate(7.12 3.916)"/>
                                    </g>
                                </g>
                            </g>
                        </g>
                        <g fill-rule="nonzero">
                            <g transform="translate(-70 -236) translate(70 236) translate(9.028 49.513) translate(0 27.457) translate(0 62.963)">
                                <ellipse cx="80.959" cy="262.394" fill="#BEC3C6" opacity=".314" rx="80.347" ry="6.771"/>
                                <path fill="url(#6xbnooxxkd)" d="M119.237 51.722c-.21-.235-.426-.469-.649-.703 1.703-1.926 3.47-3.905 3.452-6.383-.018-3.008-2.697-5.321-3.699-8.164-1.36-3.866.53-8.02 1.305-12.049 1.219-6.615-.583-13.428-4.915-18.585-.787-.928-1.7-1.824-2.874-2.193-1.784-.56-3.678.218-5.536.446-6.131.756-11.706-4.51-17.866-4.038-.407.014-.809.104-1.184.263-.797.38-1.23 1.22-1.72 1.94-1.915 2.812-5.128 4.218-8.322 5.641-.402.118-.784.294-1.135.52-.96.447-1.904.91-2.796 1.438-6.037 3.56-5.159 8.544-1.601 11.62-.705 3.454-4.231 6.495-3.628 10.048.48 2.784 3.388 4.678 3.949 7.448.324 1.61-.187 3.142-.9 4.664-6.752 1.557-14.382 4.428-14.978 9.49-1.036 8.807-4.153 33.135-4.153 33.135s-3.618 19.486 10.102 10.256l-.177.52c-2.474 7.464-4.162 15.164-5.038 22.976-.138 1.163-.42 2.077-.928 2.376-.183.109.18.28.974.495-.089.327-.187.654-.272.984-1.508 5.697-2.47 11.524-2.877 17.401-.387 5.206-1.108 10.382-2.158 15.497-3.25 16.3 0 37.213 0 37.213l7.094 33.29 1.213 5.691c.801.883 1.78 1.587 2.874 2.067.475 2.04.805 4.11.987 6.196.018.232.035.467.05.703-.865.106-1.638.585-2.116 1.31-2.528 3.544.352 6.38-9.39 13.469-2.52 1.831-3.734 3.497-4.044 4.92-.331 1.522.388 2.756 1.675 3.589.22.141.448.268.684.38.12.056.237.11.353.161.124.052.252.1.384.144h.021l.377.12h.029l.405.105h.035l.381.081h.05l.419.07h.046l.38.046h.075l.426.032h1.012l.381-.021h.102l.43-.042h.05l.384-.057.106-.017.427-.081h.042l.388-.095.109-.028c.141-.039.279-.077.42-.123h.024l.392-.137.105-.039c.138-.053.272-.105.406-.165 6.502-2.836 19.865-10.277 19.865-10.277v-.239-.102-.091-.226-.266-.173-.309c-.039-3.054-.356-10.182-1.767-9.904-.483.095-.81.77-1.145 1.546l-.166-.316c-1.375-2.647-3.367-7.187-3.561-11.627 1.11-.801 2.139-1.71 3.07-2.713 0 0-.726-3.047-1.343-6.263-.536-2.787-.99-5.697-.825-6.85.353-2.481-4.333-21.619-4.333-21.619s.483-4.217 1.456-10.062c1.89-11.374 5.61-28.947 11.16-33.917.13-.112.257-.225.388-.323 0 0 3.973.703 7.224 23.035l.942 9.943c.273 2.754.744 5.485 1.41 8.172.642 2.646 1.33 7.075.906 13.07-.412 5.863-.589 12.762-.663 17.606-.056 3.651-.056 6.136-.056 6.136.673.567 1.399 1.067 2.168 1.494v3.251c-.008.69-.28 1.352-.761 1.849-.512.574-.885 1.259-1.09 2-.631 1.131-1.163 2.97-1.386 5.925-.705 9.57-1.082 8.506-1.082 8.506-.414 1.035-.69 2.12-.818 3.226-.021.208-.032.415-.039.626v.523c0 .047.006.118.018.211 0 .064.008.127.025.19 0 .046 0 .092.02.134.022.042.032.168.054.253l.028.109c.024.088.05.172.077.256l.029.078c.028.077.06.152.095.225l.031.066c.043.085.089.17.142.25l.042.067c.053.08.11.157.173.232l.045.052c.069.079.142.152.219.222l.025.02c.08.07.163.135.25.194l.039.028c.095.062.194.119.296.169l.06.032c.115.052.232.098.353.137l.06.017c.131.044.266.08.401.11.141.027.29.052.445.066h.063c.155 0 .318.025.487.025h.719c.198 0 .406-.036.62-.067 7.585-1.055 11.199-1.757 10.836-6.024-.219-2.562-.829-6.285-1.28-8.84-.229-1.296-.65-2.552-1.248-3.725.018-.2.036-.404.053-.615.13-1.758.123-3.866-.413-5.248l.166-3.103c1.877-.476 3.573-1.489 4.88-2.914 0 0 .053-2.298.211-5.35.24-4.709.705-11.207 1.594-13.787 1.446-4.253 0-19.137 0-19.137s-5.42-25.517-.353-36.504c4.46-9.69 4.422-19.387.13-28.82.085-.066.162-.142.23-.225 0 0-1.082-.703-.705-8.86.275-6.221-1.552-12.653-2.433-15.338 1.379.59 2.792 1.096 4.231 1.518 8.29 2.464 9.012-6.766 9.012-6.766l1.806-13.823 2.143-20.585c.586-1.617 1.372-5.659-2.792-10.386zm-36.72-13.655c0 .229-.024.457-.049.682-.066.733-.221 1.455-.461 2.151.246-.94.397-1.904.447-2.875l.064.042zm21.837 50.313c.127.235.25.46.352.703l-.913-.464c.338-1.672.886-3.294 1.63-4.83.897-1.786 1.635-3.648 2.206-5.563-.025 2.213.082 4.425.321 6.625.737 5.655-3.596 3.529-3.596 3.529z"/>
                                <path fill="#2F2E41" d="M73.724 11.328c-1.153.784-2.362 1.69-2.771 3.022-.663 2.148 1.001 4.302 1.163 6.545.3 4.073-4.322 7.44-3.642 11.472.465 2.762 3.307 4.639 3.854 7.38.797 4.007-3.558 7.54-3.216 11.599.184 2.168 1.696 4.01 3.41 5.353 2.409 1.88 5.292 3.06 8.332 3.409-.201-3.483-2.796-6.657-2.349-10.119.307-2.372 1.982-4.316 2.952-6.506 1.703-3.845 1.156-8.294.137-12.371s-2.496-8.109-2.57-12.302c-.046-2.53 1.146-6.245.271-8.646-1.061-2.92-3.593-.182-5.57 1.164zM77.106 246.568l-3.174 3.163s-11.283 5.975-9.872-2.109c.385-2.403.467-4.845.243-7.268-.292-3.383-.965-6.722-2.006-9.954l10.577-2.109c-1.763 5.511 1.14 12.45 2.948 15.982.723 1.423 1.284 2.295 1.284 2.295zM101.131 240.175c-.079 1.082-.213 2.16-.402 3.23 0 0-8.815 5.974-9.52-.703-.458-4.352.578-6.327 1.361-7.156.47-.496.734-1.15.74-1.831v-7.884l7.758 2.46-.353 6.678c.536 1.389.543 3.462.416 5.206z"/>
                                <path fill="#000" d="M77.106 246.568l-3.174 3.163s-11.283 5.975-9.872-2.109c.385-2.403.467-4.845.243-7.268 2.468-.352 5.398 2.348 5.398 2.348 4.132 5.813 5.247 3.613 6.121 1.57.723 1.424 1.284 2.296 1.284 2.296z" opacity=".05"/>
                                <path fill="#4A4969" d="M69.701 243.405s-4.936-4.57-7.404-1.055c-2.468 3.515.352 6.327-9.168 13.356-9.52 7.03 0 11.598 6.347 8.787 6.347-2.812 19.392-10.193 19.392-10.193s0-11.598-1.762-11.247c-1.763.352-1.41 8.787-7.405.352z"/>
                                <path fill="#000" d="M101.131 240.175c-.079 1.082-.213 2.16-.402 3.23 0 0-8.815 5.974-9.52-.703-.458-4.352.578-6.327 1.361-7.156.625-.468 1.457-.554 2.165-.225 1.41-.626 2.962.418 4.231 1.757.876.916 1.606 1.96 2.165 3.097z" opacity=".05"/>
                                <path fill="#4A4969" d="M94.735 236.024s-3.878-2.109-4.584 7.38c-.705 9.49-1.057 8.436-1.057 8.436s-3.526 8.435 3.878 7.38c7.405-1.054 10.93-1.757 10.578-5.974-.212-2.541-.811-6.235-1.252-8.766-.422-2.503-1.576-4.826-3.318-6.678-1.28-1.364-2.835-2.404-4.245-1.778zM107.428 191.036s1.41 14.762 0 18.98c-.856 2.558-1.322 9.004-1.554 13.675-.156 3.022-.209 5.303-.209 5.303-6.699 7.03-14.456 0-14.456 0s0-2.46.057-6.087c.074-4.805.246-11.648.648-17.46.413-5.948-.257-10.337-.885-12.963-.647-2.665-1.104-5.372-1.368-8.101l-.92-9.862c-3.173-22.143-7.052-22.846-7.052-22.846-.127.099-.25.208-.377.32-5.42 4.92-9.051 22.357-10.895 33.635-.949 5.803-1.41 9.979-1.41 9.979s4.583 18.979 4.23 21.44c-.162 1.141.283 4.03.804 6.793.603 3.188 1.312 6.21 1.312 6.21-8.815 9.49-14.809 2.11-14.809 2.11l-1.184-5.645-6.925-33.017s-3.174-20.737 0-36.904c1.028-5.074 1.735-10.207 2.115-15.37.4-5.827 1.345-11.604 2.82-17.257.431-1.673.908-3.333 1.432-4.98 0 0 13.24-2.295 25.708-2.295 9.35 0 18.264 1.29 20.835 5.81.592 1.04 1.13 2.083 1.614 3.128 4.464 9.563 4.584 19.387.149 29.207-4.968 10.891.32 36.197.32 36.197z"/>
                                <path fill="#A0616A" d="M77.81 63.454s-18.687-18.98-4.583-17.574c3.198.32 5.363-.25 6.798-1.318 1.636-1.216 2.324-3.078 2.514-5.022.388-3.866-1.202-8.084-1.202-8.084s19.04-15.113 15.161 3.866c-.426 1.93-.674 3.893-.74 5.866-.064 4.028 1.265 5.571 3.13 6.204 3.146 1.072 7.821-.43 9.95 3.043 3.88 6.34-31.027 13.019-31.027 13.019z"/>
                                <path fill="#000" d="M96.498 35.336c-.426 1.93-.674 3.893-.74 5.866-.508.176-1.024.322-1.548.44-4.016.902-8.228.141-11.671-2.11.388-3.865-1.202-8.083-1.202-8.083s19.04-15.092 15.161 3.887z" opacity=".05"/>
                                <path fill="#8D6469" d="M106.018 26.198c0 8.347-6.788 15.113-15.161 15.113-8.374 0-15.162-6.766-15.162-15.113 0-.28 0-.562.025-.84.467-8.161 7.36-14.472 15.558-14.245 8.198.227 14.728 6.91 14.74 15.085z"/>
                                <path fill="#FFF" d="M97.952 39.887c-.18.17-.362.342-.551.5-4.427 1.538-9.522 1.46-13.874-.211-4.352-1.672-7.498-4.76-8.565-8.409l7.806-1.095 15.18 1.123c-3.475 3.253-3.054 4.381.004 8.092z" transform="rotate(8 86.457 36.08)"/>
                                <path fill="#000" d="M77.81 63.454s-18.687-18.98-4.583-17.574c3.198.32 5.363-.25 6.798-1.318-2.73 4.513-5.8 12.629 8.01 11.862 12.641-.703 12.426-5.721 10.854-9.018 3.145 1.072 7.82-.429 9.95 3.043 3.878 6.327-31.028 13.005-31.028 13.005z" opacity=".05"/>
                                <path fill="#000" d="M107.428 127.07c-3.208 4.157-44.109-1.294-50.089-3.104.43-1.673.908-3.333 1.432-4.98 0 0 13.24-2.296 25.707-2.296 9.351 0 18.264 1.29 20.835 5.81.592 1.04 1.13 2.083 1.615 3.128.225 1.258.5 1.441.5 1.441z" opacity=".1"/>
                                <path fill="#F34E70" d="M81.69 42.717S57.89 44.65 56.83 53.788c-.535 4.623-2.565 14.148-3.486 21.533-.409 3.277-.528 6.324-.568 8.333-.04 2.022-.872 4.52-.872 4.52s-2.654 17.807 10.744 8.669l-.173.513c-2.416 7.408-4.064 15.043-4.918 22.786-.138 1.153-.41 2.06-.906 2.358-1.763 1.054 47.247 8.084 50.773 3.515 0 0-1.058-.703-.705-8.787.352-8.084-2.821-16.519-2.821-16.519s-2.82-8.435 1.058-16.519c3.878-8.083 2.468-10.544 2.468-10.544l13.398-10.192s2.895-4.945-2.397-11.047c-3.209-3.646-7.74-5.871-12.595-6.186l-9.238-.667s10.127 10.86-8.913 11.914c-19.04 1.055-5.99-14.75-5.99-14.75z"/>
                                <path fill="#000" d="M103.93 51.412s-2.161 5.235-14.963 8.476c-12.8 3.24-19.352-4.161-23.05-8.777-.161-.2-.312-.407-.453-.621l5.977-1.174s27.71 1.021 29.407-.211c.46-.25.99-.343 1.507-.266.607.805 1.135 1.666 1.576 2.573z" opacity=".1" transform="rotate(18 84.697 54.748)"/>
                                <path fill="#F34E70" d="M97.915 44.454s-.826-9.547-4.655-3.309C89.432 47.383 87.89 48 87.89 48s-9.095-7.691-10.792-6.767c-1.697.925-3.847 2.262-4.645 4.538-.797 2.275-4.447 1.191-3.722 3.898.726 2.707 9.743 12.497 22.545 9.258 12.802-3.24 14.963-8.474 14.963-8.474s-3.234-7.079-8.324-5.999z" transform="rotate(15 87.438 49.303)"/>
                                <path fill="#000" d="M65.823 62.048s.705 5.623-.706 7.38c-1.41 1.758-1.763 9.842 0 14.762" opacity=".05"/>
                                <path fill="#000" d="M81.312 151.992c-5.42 4.92-9.051 22.356-10.895 33.635-2.567-15.7 8.11-41.687 8.11-41.687l2.785 8.052zM75.343 230.049c-8.815 9.49-14.81 2.109-14.81 2.109l-1.184-5.645c3.332 1.726 8.963 3.065 14.682-2.675.603 3.188 1.312 6.21 1.312 6.21zM105.874 223.69c-.156 3.023-.209 5.304-.209 5.304-6.699 7.03-14.456 0-14.456 0s0-2.46.057-6.087c2.909 1.842 8.137 3.87 14.608.784z" opacity=".1"/>
                                <g transform="rotate(-90 81.913 4.646)">
                                    <rect width="21.245" height="9.841" fill="#CDD0DB" rx=".862"/>
                                    <rect width="21.245" height="9.841" fill="#000" opacity=".05" rx=".862"/>
                                    <rect width="21.245" height="9.841" x=".616" fill="#413F8D" rx=".209"/>
                                    <ellipse cx="17.027" cy="4.745" fill="#9DA7C0" rx="1" ry="1.054"/>
                                </g>
                                <path fill="#000" d="M57.382 89.582c.644-1.912 2.102-3.443 3.984-4.183 1.206-.499 2.676-1.406 3.42-3.061 1.39-3.068 3.857-6.231 10.204-4.123 6.347 2.11-1.763 3.515-1.763 3.515s14.456-2.109 8.815 2.109c-5.642 4.217-12.694 6.678-12.694 6.678l-3.473 3.665c-2.115 2.24-5.79 2.229-7.757-.154-.881-1.076-1.346-2.524-.736-4.446z" opacity=".05"/>
                                <path fill="#8D6469" d="M57.029 88.879c.644-1.912 2.102-3.443 3.984-4.183 1.206-.499 2.676-1.405 3.42-3.06 1.39-3.07 3.858-6.232 10.204-4.124 6.347 2.11-1.763 3.515-1.763 3.515s14.457-2.109 8.815 2.109c-5.641 4.217-12.693 6.678-12.693 6.678l-3.473 3.666c-2.116 2.238-5.79 2.228-7.757-.155-.882-1.076-1.347-2.524-.737-4.446z"/>
                                <path fill="#000" d="M106.723 96.14l-2.468 5.975-3.173-2.316-8.815-6.47-5.994-3.867c-8.462-6.326 0-7.38 0-7.38-3.173-1.406 0-2.812 0-2.812 11.283-2.46 9.167 6.678 9.167 6.678l7.147 3.693 2.373 1.227 1.763 5.272z" opacity=".05"/>
                                <path fill="#8D6469" d="M107.428 95.437l-2.468 5.975-3.173-2.316-8.815-6.47-5.994-3.867c-8.462-6.326 0-7.38 0-7.38-3.173-1.406 0-2.812 0-2.812 11.283-2.46 9.167 6.678 9.167 6.678l7.148 3.694 2.372 1.226 1.763 5.272z"/>
                                <path fill="#000" d="M107.428 95.437l-2.468 5.975-3.173-2.316c2.86.102 6.237-1.276 1.491-10.157l2.373 1.226 1.777 5.272z" opacity=".05"/>
                                <path fill="#F34E70" d="M120.474 59.94l.68 2.765c.796 11.062 1.244 18.224 1.347 21.485.085 2.694.193 3.902 0 6.292-.193 2.39-.733 3.546-.887 4.693-.151 1.122-.53 2.527-1.14 4.217 0 0-.266 1.55-3.055 4.129-1.924 1.78-5.621 1.005-8.933 0-8.11-2.46-8.815-4.92-8.815-4.92s-7.997-4.43-9.858-7.574c-.706-1.192 3.383-1.336 4.805-2.088 1.42-.752 1.729-1.357 3.315-2.957 0 0 4.907 2.974 7.98 3.1.67.028 2.226.469 2.573-.143.647-1.14-.275-3.88-.451-5.285-.706-5.623-.607-13.874-.607-13.874l13.046-9.84z"/>
                                <path fill="#2F2E41" d="M86.559 22.234c.842 3.054 4.259 5.152 7.372 4.53 1.206-.239 2.722-.724 3.466.253.19.272.306.588.335.918.374 2.938-2.951 5.029-3.667 7.904-.737 2.96 1.41 5.817 1.887 8.829.25 1.648 0 3.328 0 4.994s.394 3.459 1.636 4.57c1.24 1.11 3.526 1.131 4.361-.317 3.967 2.091 2.384 8.569 5.395 11.883 1.66 1.828 4.393 2.267 6.858 2.035.577-.01 1.138-.19 1.611-.52.408-.4.683-.916.79-1.476.622-2.347.515-4.826-.307-7.11-.395-1.094-.962-2.197-.814-3.346.112-.9.652-1.684 1.223-2.39 1.894-2.341 4.478-4.605 4.46-7.613-.017-3.009-2.633-5.272-3.61-8.084-1.33-3.841.515-7.957 1.273-11.95 1.2-6.554-.554-13.303-4.796-18.452-.768-.92-1.66-1.81-2.82-2.175-1.739-.556-3.59.218-5.405.443-5.995.748-11.428-4.475-17.443-4.007-.399.015-.791.104-1.157.263-.779.376-1.199 1.21-1.682 1.926-2.655 3.954-7.873 5.083-11.963 7.536-11.928 7.16 3.86 20.121 12.997 11.356z"/>
                                <path fill="#000" d="M106.018 26.198c0 7.06-4.901 13.18-11.808 14.74-.508-1.461-.868-2.916-.497-4.396.705-2.872 4.04-4.966 3.67-7.901-.036-.332-.158-.65-.352-.92-.744-.978-2.26-.493-3.466-.25-3.117.618-6.53-1.48-7.377-4.534-2.761 2.707-6.812 3.642-10.486 2.421.468-8.161 7.36-14.472 15.559-14.245 8.197.227 14.728 6.91 14.74 15.085h.017z" opacity=".05"/>
                                <path fill="#FFF" d="M59.476 263.087c-4.122 1.824-9.576.537-10.292-2.51-.864 4.028 5.585 6.003 10.292 3.916 6.347-2.812 19.392-10.193 19.392-10.193s0-.545-.017-1.406c-.381.225-13.124 7.406-19.375 10.193zM103.532 253.042c-.405 3.163-3.924 3.827-10.56 4.773-3.374.481-4.474-1.013-4.679-2.777-.222 2.26.423 4.787 4.68 4.183 7.404-1.055 10.93-1.758 10.577-5.975-.007-.067-.014-.137-.018-.204z" opacity=".3"/>
                                <path fill="#F34E70" d="M57.105 86.685c-1.172 2.934-1.562 4.6-1.172 4.997.586.596 1.342 4.157 3.179 4.157 1.224 0 2.403.335 3.537 1.004l6.625-6.36c-2.231-.936-3.669-1.769-4.313-2.5-1.42-1.613-1.553-4.329-2.312-4.329-1.275 0-3.123 1.01-5.544 3.031z"/>
                            </g>
                            <g>
                                <path fill="#B3B2D1" d="M0 .732v62.321l14.367-14.686h155.65c.405 0 .732-.327.732-.731V.732c0-.404-.327-.732-.731-.732H.732C.328 0 0 .328 0 .732z" transform="translate(-70 -236) translate(70 236) translate(9.028 49.513) translate(0 27.457) translate(103.82)"/>
                                <path fill="#413F8D" d="M11.253 37.617H37.4c.514-.003.99-.276 1.252-.72.262-.444.274-.994.03-1.449L25.616 11.063c-.255-.477-.75-.774-1.289-.774-.538 0-1.033.297-1.288.774L9.965 35.448c-.245.456-.232 1.007.032 1.451.264.445.74.717 1.256.718zm14.6-4.685H22.41v-3.514h3.442v3.514zm0-5.466H22.41V20.83h3.442v6.636z" transform="translate(-70 -236) translate(70 236) translate(9.028 49.513) translate(0 27.457) translate(103.82)"/>
                                <path fill="#413F8D" d="M155.181 34.859v4.1H52.731v-4.1h102.45zm-8.537-8.202v4.1H52.73v-4.1h93.913zm7.533-8.202v4.1H52.73v-4.1h101.446zm7.03-9.228v4.101H52.732v-4.1h108.477z" filter="url(#efa68wbiee)" transform="translate(-70 -236) translate(70 236) translate(9.028 49.513) translate(0 27.457) translate(103.82)"/>
                            </g>
                        </g>
                    </g>
                </g>
            </g>
        </g>
    </g>
</svg>
