<svg xmlns="http://www.w3.org/2000/svg" xmlns:svg="http://www.w3.org/2000/svg" id="svg2" width="1113.265" height="282.05" version="1.1" viewBox="0 0 1043.686 264.422"><metadata id="metadata7"/><g id="layer1" transform="translate(-12.912477,-495.31367)"><path style="color:#000;font-style:normal;font-variant:normal;font-weight:400;font-stretch:normal;font-size:medium;line-height:normal;font-family:sans-serif;text-indent:0;text-align:start;text-decoration:none;text-decoration-line:none;text-decoration-style:solid;text-decoration-color:#000;letter-spacing:normal;word-spacing:normal;text-transform:none;direction:ltr;block-progression:tb;writing-mode:lr-tb;baseline-shift:baseline;text-anchor:start;white-space:normal;clip-rule:nonzero;display:inline;overflow:visible;visibility:visible;opacity:1;isolation:auto;mix-blend-mode:normal;color-interpolation:sRGB;color-interpolation-filters:linearRGB;solid-color:#000;solid-opacity:1;fill:#000;fill-opacity:.5372549;fill-rule:nonzero;stroke:none;stroke-width:30.00193405;stroke-linecap:butt;stroke-linejoin:miter;stroke-miterlimit:4;stroke-dasharray:none;stroke-dashoffset:0;stroke-opacity:1;color-rendering:auto;image-rendering:auto;shape-rendering:auto;text-rendering:auto;enable-background:accumulate" id="path4185" d="m 70.865234,610.82812 0,70.00196 0,69.99804 29.999996,0 0,-69.99804 0.002,0 c 0,-14.31808 7.60392,-27.49038 20,-34.64844 12.39609,-7.15805 27.6,-7.15805 39.99609,0 12.39608,7.15806 20,20.33036 20,34.64844 l 0.002,0 0,69.99804 30,0 0,-69.99804 0.002,0 c 0,-14.31808 7.60392,-27.49038 20,-34.64844 12.39609,-7.15805 27.6,-7.15805 39.99609,0 12.39608,7.15806 20,20.33036 20,34.64844 l 0.002,0 0,69.99804 30,0 0,-70 c -6.9e-4,-24.98614 -13.36312,-48.1348 -35,-60.6289 -21.63744,-12.49443 -48.36256,-12.49443 -70,0 -7.83452,4.524 -14.57476,10.45035 -19.99804,17.34961 -5.42341,-6.89967 -12.16708,-12.8254 -20.00196,-17.34961 -21.63744,-12.49443 -48.36256,-12.49443 -70,0 -1.72274,0.99479 -3.38473,2.06403 -5,3.18945 l 0,-12.56055 -29.999996,0 z" transform="translate(-50.866144,1.5334685)"/><path id="path4187-3" d="m 299.92126,752.3622 30,0 0,-140 -30,0 z" style="opacity:1;fill:#000;fill-opacity:.5372549;stroke:none;stroke-width:30;stroke-linecap:butt;stroke-miterlimit:4;stroke-dasharray:none;stroke-dashoffset:0;stroke-opacity:1"/><path style="opacity:1;fill:#000;fill-opacity:.5372549;stroke:none;stroke-width:30;stroke-linecap:butt;stroke-miterlimit:4;stroke-dasharray:none;stroke-dashoffset:0;stroke-opacity:1" id="path4225" d="m 509.04084,612.36159 0,67.20899 c -0.0396,0.95806 -0.0645,1.91992 -0.0645,2.88477 l 0.0645,0 0,69.90624 30.125,0 0,-73.04296 c 1.16572,-14.90078 10.57717,-27.9662 24.66992,-33.7793 15.07382,-6.21777 32.33148,-2.79243 43.84961,8.67773 l 21.21484,-21.30468 c -20.07322,-19.98962 -50.32701,-25.97415 -76.52929,-15.16602 -4.71079,1.94315 -9.1243,4.37042 -13.20508,7.19922 l 0,-12.58399 -30.125,0 z"/><path style="color:#000;font-style:normal;font-variant:normal;font-weight:400;font-stretch:normal;font-size:medium;line-height:normal;font-family:sans-serif;text-indent:0;text-align:start;text-decoration:none;text-decoration-line:none;text-decoration-style:solid;text-decoration-color:#000;letter-spacing:normal;word-spacing:normal;text-transform:none;direction:ltr;block-progression:tb;writing-mode:lr-tb;baseline-shift:baseline;text-anchor:start;white-space:normal;clip-rule:nonzero;display:inline;overflow:visible;visibility:visible;opacity:1;isolation:auto;mix-blend-mode:normal;color-interpolation:sRGB;color-interpolation-filters:linearRGB;solid-color:#000;solid-opacity:1;fill:#000;fill-opacity:.5372549;fill-rule:nonzero;stroke:none;stroke-width:30.00193405;stroke-linecap:butt;stroke-linejoin:miter;stroke-miterlimit:4;stroke-dasharray:none;stroke-dashoffset:0;stroke-opacity:1;color-rendering:auto;image-rendering:auto;shape-rendering:auto;text-rendering:auto;enable-background:accumulate" id="path4233" d="m 710.07874,752.36133 c -38.48279,0 -70,-31.51722 -70,-70 0,-38.48279 31.51721,-70.00195 70,-70.00195 38.48279,0 70.00195,31.51916 70.00195,70.00195 0,38.48278 -31.51916,70 -70.00195,70 z m 0,-30.00195 c 22.26854,0 40,-17.72952 40,-39.99805 0,-22.26854 -17.73146,-40 -40,-40 -22.26854,0 -39.99805,17.73146 -39.99805,40 0,22.26853 17.72951,39.99805 39.99805,39.99805 z"/><path id="path4272" d="m 926.22255,502.41304 c -24.63915,-0.35103 -49.4987,6.54125 -71.15821,21.01367 -49.50745,33.07984 -68.82289,96.75981 -46.03711,151.76954 22.78578,55.00974 81.47308,86.37781 139.8711,74.76172 58.39807,-11.61609 100.61327,-63.05556 100.61327,-122.59766 l 0,-15 -124.99999,0 0,30 93.80269,0 c -6.1439,38.75895 -35.725,70.30989 -75.26949,78.17578 -44.54162,8.85987 -88.92345,-14.86302 -106.30273,-56.82031 -17.37927,-41.95728 -2.77033,-90.1149 34.99023,-115.3457 37.76055,-25.23081 87.84236,-20.29826 119.95509,11.81445 l 21.2129,-21.21289 c -23.6828,-23.68273 -54.99884,-36.10727 -86.67775,-36.5586 z" style="color:#000;font-style:normal;font-variant:normal;font-weight:400;font-stretch:normal;font-size:medium;line-height:normal;font-family:sans-serif;text-indent:0;text-align:start;text-decoration:none;text-decoration-line:none;text-decoration-style:solid;text-decoration-color:#000;letter-spacing:normal;word-spacing:normal;text-transform:none;direction:ltr;block-progression:tb;writing-mode:lr-tb;baseline-shift:baseline;text-anchor:start;white-space:normal;clip-rule:nonzero;display:inline;overflow:visible;visibility:visible;opacity:1;isolation:auto;mix-blend-mode:normal;color-interpolation:sRGB;color-interpolation-filters:linearRGB;solid-color:#000;solid-opacity:1;fill:#000;fill-opacity:.5372549;fill-rule:nonzero;stroke:none;stroke-width:30;stroke-linecap:butt;stroke-linejoin:miter;stroke-miterlimit:4;stroke-dasharray:none;stroke-dashoffset:0;stroke-opacity:1;color-rendering:auto;image-rendering:auto;shape-rendering:auto;text-rendering:auto;enable-background:accumulate"/><g id="g6310" transform="translate(28.396791,319.03642)"><path id="path6302" d="m 437.1019,402.53183 a 55,55 0 0 1 -66.39087,8.74053" style="opacity:1;fill:none;fill-opacity:1;stroke:#e91e63;stroke-width:30;stroke-linecap:butt;stroke-miterlimit:4;stroke-dasharray:none;stroke-dashoffset:0;stroke-opacity:1"/><path style="opacity:1;fill:none;fill-opacity:1;stroke:#ff9800;stroke-width:30;stroke-linecap:butt;stroke-miterlimit:4;stroke-dasharray:none;stroke-dashoffset:0;stroke-opacity:1" id="path6304" d="M 370.71103,411.27236 A 55,55 0 0 1 345.08511,349.40592"/><path id="path6306" d="m 345.08511,349.40592 a 55,55 0 0 1 25.62592,-33.39636" style="opacity:1;fill:none;fill-opacity:1;stroke:#cddc39;stroke-width:30;stroke-linecap:butt;stroke-miterlimit:4;stroke-dasharray:none;stroke-dashoffset:0;stroke-opacity:1"/><path style="opacity:1;fill:none;fill-opacity:1;stroke:#009688;stroke-width:30;stroke-linecap:butt;stroke-miterlimit:4;stroke-dasharray:none;stroke-dashoffset:0;stroke-opacity:1" id="path6308" d="m 370.71103,316.00956 a 55,55 0 0 1 66.39087,8.74053"/></g></g></svg>