<svg xmlns="http://www.w3.org/2000/svg" xmlns:xlink="http://www.w3.org/1999/xlink" width="92cm" height="42cm" viewBox="21 8 92 42"><g id="Background"><rect width="92" height="42" x="21" y="8" fill="none" stroke="#000" stroke-width=".001" rx="0"/><rect width="1" height="3" x="100" y="28" fill="#D9D9CD" stroke="#000" stroke-width=".1" rx="0"/><rect width="1" height="3" x="100" y="28" fill="none" stroke="#000" stroke-width=".01" rx="0"/><rect width=".8" height="1.2" x="100.1" y="28.1" fill="#D9D9CD" stroke="#000" stroke-width=".1" rx="0"/><rect width=".8" height="1.2" x="100.1" y="28.1" fill="none" stroke="#000" stroke-width=".01" rx="0"/><line x1="100.1" x2="100.9" y1="28.3" y2="28.3" stroke="#000" stroke-width=".01"/><line x1="100.9" x2="100.1" y1="28.5" y2="28.5" stroke="#000" stroke-width=".01"/><line x1="100.1" x2="100.9" y1="28.7" y2="28.7" stroke="#000" stroke-width=".01"/><line x1="100.1" x2="100.9" y1="28.9" y2="28.9" stroke="#000" stroke-width=".01"/><line x1="100.9" x2="100.1" y1="29.1" y2="29.1" stroke="#000" stroke-width=".01"/><rect width=".55" height=".3" x="100.1" y="29.4" fill="#D9D9CD" stroke="#000" stroke-width=".1" rx="0"/><rect width=".55" height=".3" x="100.1" y="29.4" fill="none" stroke="#000" stroke-width=".01" rx="0"/><line x1="100" x2="101" y1="29.9" y2="29.9" stroke="#000" stroke-width=".01"/><rect width=".05" height=".05" x="100.45" y="30" fill="#00CD00" stroke="#000" stroke-width=".1" rx="0"/><rect width=".05" height=".05" x="100.45" y="30" fill="none" stroke="#000" stroke-width=".01" rx="0"/><rect width=".05" height=".05" x="100.65" y="30" fill="#CDCD00" stroke="#000" stroke-width=".1" rx="0"/><rect width=".05" height=".05" x="100.65" y="30" fill="none" stroke="#000" stroke-width=".01" rx="0"/><rect width=".05" height=".05" x="100.85" y="30" fill="#CD0000" stroke="#000" stroke-width=".1" rx="0"/><rect width=".05" height=".05" x="100.85" y="30" fill="none" stroke="#000" stroke-width=".01" rx="0"/><rect width=".1" height=".1" x="100.8" y="29.7" fill="#CDCDBD" stroke="#000" stroke-width=".1" rx="0"/><rect width=".1" height=".1" x="100.8" y="29.7" fill="none" stroke="#000" stroke-width=".01" rx="0"/><line x1="100.1" x2="100.65" y1="29.55" y2="29.55" stroke="#000" stroke-width=".01"/><rect width=".15" height=".15" x="100.1" y="29.95" fill="#CDCDBD" stroke="#000" stroke-width=".1" rx="0"/><rect width=".15" height=".15" x="100.1" y="29.95" fill="none" stroke="#000" stroke-width=".01" rx="0"/><rect width=".7" height=".05" x="100.15" y="29.15" fill="#CDCDC1" stroke="#000" stroke-width=".1" rx="0"/><rect width=".7" height=".05" x="100.15" y="29.15" fill="none" stroke="#000" stroke-width=".01" rx="0"/><line x1="100.15" x2="100.6" y1="29.45" y2="29.45" stroke="#000" stroke-width=".01"/><line x1="100.6" x2="100.55" y1="29.5" y2="29.5" stroke="#000" stroke-width=".01"/><line x1="100.15" x2="100.2" y1="29.5" y2="29.5" stroke="#000" stroke-width=".01"/><rect width=".25" height=".05" x="100.25" y="29.45" fill="#CDCDC1" stroke="#000" stroke-width=".1" rx="0"/><rect width=".25" height=".05" x="100.25" y="29.45" fill="none" stroke="#000" stroke-width=".01" rx="0"/><line x1="100.15" x2="100.2" y1="29.25" y2="29.25" stroke="#000" stroke-width=".01"/><line x1="100.25" x2="100.3" y1="29.25" y2="29.25" stroke="#000" stroke-width=".01"/><line x1="100.75" x2="100.85" y1="29.25" y2="29.25" stroke="#000" stroke-width=".01"/><line x1="100.05" x2="100.95" y1="30.95" y2="30.95" stroke="#000" stroke-width=".01"/><line x1="100.95" x2="100.05" y1="30.9" y2="30.9" stroke="#000" stroke-width=".01"/><line x1="100.05" x2="100.95" y1="30.85" y2="30.85" stroke="#000" stroke-width=".01"/><line x1="100.95" x2="100.05" y1="30.8" y2="30.8" stroke="#000" stroke-width=".01"/><line x1="100.05" x2="100.95" y1="30.75" y2="30.75" stroke="#000" stroke-width=".01"/><line x1="100.95" x2="100.05" y1="30.7" y2="30.7" stroke="#000" stroke-width=".01"/><line x1="100.05" x2="100.95" y1="30.65" y2="30.65" stroke="#000" stroke-width=".01"/><line x1="100.95" x2="100.05" y1="30.6" y2="30.6" stroke="#000" stroke-width=".01"/><line x1="100.05" x2="100.95" y1="30.55" y2="30.55" stroke="#000" stroke-width=".01"/><line x1="100.95" x2="100.05" y1="30.5" y2="30.5" stroke="#000" stroke-width=".01"/><line x1="100.05" x2="100.95" y1="30.45" y2="30.45" stroke="#000" stroke-width=".01"/><line x1="100.95" x2="100.05" y1="30.4" y2="30.4" stroke="#000" stroke-width=".01"/><line x1="100.05" x2="100.95" y1="30.35" y2="30.35" stroke="#000" stroke-width=".01"/><line x1="100.95" x2="100.05" y1="30.3" y2="30.3" stroke="#000" stroke-width=".01"/><rect width="1" height="3" x="91" y="28" fill="#D9D9CD" stroke="#000" stroke-width=".1" rx="0"/><rect width="1" height="3" x="91" y="28" fill="none" stroke="#000" stroke-width=".01" rx="0"/><rect width=".8" height="1.2" x="91.1" y="28.1" fill="#D9D9CD" stroke="#000" stroke-width=".1" rx="0"/><rect width=".8" height="1.2" x="91.1" y="28.1" fill="none" stroke="#000" stroke-width=".01" rx="0"/><line x1="91.1" x2="91.9" y1="28.3" y2="28.3" stroke="#000" stroke-width=".01"/><line x1="91.9" x2="91.1" y1="28.5" y2="28.5" stroke="#000" stroke-width=".01"/><line x1="91.1" x2="91.9" y1="28.7" y2="28.7" stroke="#000" stroke-width=".01"/><line x1="91.1" x2="91.9" y1="28.9" y2="28.9" stroke="#000" stroke-width=".01"/><line x1="91.9" x2="91.1" y1="29.1" y2="29.1" stroke="#000" stroke-width=".01"/><rect width=".55" height=".3" x="91.1" y="29.4" fill="#D9D9CD" stroke="#000" stroke-width=".1" rx="0"/><rect width=".55" height=".3" x="91.1" y="29.4" fill="none" stroke="#000" stroke-width=".01" rx="0"/><line x1="91" x2="92" y1="29.9" y2="29.9" stroke="#000" stroke-width=".01"/><rect width=".05" height=".05" x="91.45" y="30" fill="#00CD00" stroke="#000" stroke-width=".1" rx="0"/><rect width=".05" height=".05" x="91.45" y="30" fill="none" stroke="#000" stroke-width=".01" rx="0"/><rect width=".05" height=".05" x="91.65" y="30" fill="#CDCD00" stroke="#000" stroke-width=".1" rx="0"/><rect width=".05" height=".05" x="91.65" y="30" fill="none" stroke="#000" stroke-width=".01" rx="0"/><rect width=".05" height=".05" x="91.85" y="30" fill="#CD0000" stroke="#000" stroke-width=".1" rx="0"/><rect width=".05" height=".05" x="91.85" y="30" fill="none" stroke="#000" stroke-width=".01" rx="0"/><rect width=".1" height=".1" x="91.8" y="29.7" fill="#CDCDBD" stroke="#000" stroke-width=".1" rx="0"/><rect width=".1" height=".1" x="91.8" y="29.7" fill="none" stroke="#000" stroke-width=".01" rx="0"/><line x1="91.1" x2="91.65" y1="29.55" y2="29.55" stroke="#000" stroke-width=".01"/><rect width=".15" height=".15" x="91.1" y="29.95" fill="#CDCDBD" stroke="#000" stroke-width=".1" rx="0"/><rect width=".15" height=".15" x="91.1" y="29.95" fill="none" stroke="#000" stroke-width=".01" rx="0"/><rect width=".7" height=".05" x="91.15" y="29.15" fill="#CDCDC1" stroke="#000" stroke-width=".1" rx="0"/><rect width=".7" height=".05" x="91.15" y="29.15" fill="none" stroke="#000" stroke-width=".01" rx="0"/><line x1="91.15" x2="91.6" y1="29.45" y2="29.45" stroke="#000" stroke-width=".01"/><line x1="91.6" x2="91.55" y1="29.5" y2="29.5" stroke="#000" stroke-width=".01"/><line x1="91.15" x2="91.2" y1="29.5" y2="29.5" stroke="#000" stroke-width=".01"/><rect width=".25" height=".05" x="91.25" y="29.45" fill="#CDCDC1" stroke="#000" stroke-width=".1" rx="0"/><rect width=".25" height=".05" x="91.25" y="29.45" fill="none" stroke="#000" stroke-width=".01" rx="0"/><line x1="91.15" x2="91.2" y1="29.25" y2="29.25" stroke="#000" stroke-width=".01"/><line x1="91.25" x2="91.3" y1="29.25" y2="29.25" stroke="#000" stroke-width=".01"/><line x1="91.75" x2="91.85" y1="29.25" y2="29.25" stroke="#000" stroke-width=".01"/><line x1="91.05" x2="91.95" y1="30.95" y2="30.95" stroke="#000" stroke-width=".01"/><line x1="91.95" x2="91.05" y1="30.9" y2="30.9" stroke="#000" stroke-width=".01"/><line x1="91.05" x2="91.95" y1="30.85" y2="30.85" stroke="#000" stroke-width=".01"/><line x1="91.95" x2="91.05" y1="30.8" y2="30.8" stroke="#000" stroke-width=".01"/><line x1="91.05" x2="91.95" y1="30.75" y2="30.75" stroke="#000" stroke-width=".01"/><line x1="91.95" x2="91.05" y1="30.7" y2="30.7" stroke="#000" stroke-width=".01"/><line x1="91.05" x2="91.95" y1="30.65" y2="30.65" stroke="#000" stroke-width=".01"/><line x1="91.95" x2="91.05" y1="30.6" y2="30.6" stroke="#000" stroke-width=".01"/><line x1="91.05" x2="91.95" y1="30.55" y2="30.55" stroke="#000" stroke-width=".01"/><line x1="91.95" x2="91.05" y1="30.5" y2="30.5" stroke="#000" stroke-width=".01"/><line x1="91.05" x2="91.95" y1="30.45" y2="30.45" stroke="#000" stroke-width=".01"/><line x1="91.95" x2="91.05" y1="30.4" y2="30.4" stroke="#000" stroke-width=".01"/><line x1="91.05" x2="91.95" y1="30.35" y2="30.35" stroke="#000" stroke-width=".01"/><line x1="91.95" x2="91.05" y1="30.3" y2="30.3" stroke="#000" stroke-width=".01"/><rect width="1" height="3" x="96" y="13" fill="#D9D9CD" stroke="#000" stroke-width=".1" rx="0"/><rect width="1" height="3" x="96" y="13" fill="none" stroke="#000" stroke-width=".01" rx="0"/><rect width=".8" height="1.2" x="96.1" y="13.1" fill="#D9D9CD" stroke="#000" stroke-width=".1" rx="0"/><rect width=".8" height="1.2" x="96.1" y="13.1" fill="none" stroke="#000" stroke-width=".01" rx="0"/><line x1="96.1" x2="96.9" y1="13.3" y2="13.3" stroke="#000" stroke-width=".01"/><line x1="96.9" x2="96.1" y1="13.5" y2="13.5" stroke="#000" stroke-width=".01"/><line x1="96.1" x2="96.9" y1="13.7" y2="13.7" stroke="#000" stroke-width=".01"/><line x1="96.1" x2="96.9" y1="13.9" y2="13.9" stroke="#000" stroke-width=".01"/><line x1="96.9" x2="96.1" y1="14.1" y2="14.1" stroke="#000" stroke-width=".01"/><rect width=".55" height=".3" x="96.1" y="14.4" fill="#D9D9CD" stroke="#000" stroke-width=".1" rx="0"/><rect width=".55" height=".3" x="96.1" y="14.4" fill="none" stroke="#000" stroke-width=".01" rx="0"/><line x1="96" x2="97" y1="14.9" y2="14.9" stroke="#000" stroke-width=".01"/><rect width=".05" height=".05" x="96.45" y="15" fill="#00CD00" stroke="#000" stroke-width=".1" rx="0"/><rect width=".05" height=".05" x="96.45" y="15" fill="none" stroke="#000" stroke-width=".01" rx="0"/><rect width=".05" height=".05" x="96.65" y="15" fill="#CDCD00" stroke="#000" stroke-width=".1" rx="0"/><rect width=".05" height=".05" x="96.65" y="15" fill="none" stroke="#000" stroke-width=".01" rx="0"/><rect width=".05" height=".05" x="96.85" y="15" fill="#CD0000" stroke="#000" stroke-width=".1" rx="0"/><rect width=".05" height=".05" x="96.85" y="15" fill="none" stroke="#000" stroke-width=".01" rx="0"/><rect width=".1" height=".1" x="96.8" y="14.7" fill="#CDCDBD" stroke="#000" stroke-width=".1" rx="0"/><rect width=".1" height=".1" x="96.8" y="14.7" fill="none" stroke="#000" stroke-width=".01" rx="0"/><line x1="96.1" x2="96.65" y1="14.55" y2="14.55" stroke="#000" stroke-width=".01"/><rect width=".15" height=".15" x="96.1" y="14.95" fill="#CDCDBD" stroke="#000" stroke-width=".1" rx="0"/><rect width=".15" height=".15" x="96.1" y="14.95" fill="none" stroke="#000" stroke-width=".01" rx="0"/><rect width=".7" height=".05" x="96.15" y="14.15" fill="#CDCDC1" stroke="#000" stroke-width=".1" rx="0"/><rect width=".7" height=".05" x="96.15" y="14.15" fill="none" stroke="#000" stroke-width=".01" rx="0"/><line x1="96.15" x2="96.6" y1="14.45" y2="14.45" stroke="#000" stroke-width=".01"/><line x1="96.6" x2="96.55" y1="14.5" y2="14.5" stroke="#000" stroke-width=".01"/><line x1="96.15" x2="96.2" y1="14.5" y2="14.5" stroke="#000" stroke-width=".01"/><rect width=".25" height=".05" x="96.25" y="14.45" fill="#CDCDC1" stroke="#000" stroke-width=".1" rx="0"/><rect width=".25" height=".05" x="96.25" y="14.45" fill="none" stroke="#000" stroke-width=".01" rx="0"/><line x1="96.15" x2="96.2" y1="14.25" y2="14.25" stroke="#000" stroke-width=".01"/><line x1="96.25" x2="96.3" y1="14.25" y2="14.25" stroke="#000" stroke-width=".01"/><line x1="96.75" x2="96.85" y1="14.25" y2="14.25" stroke="#000" stroke-width=".01"/><line x1="96.05" x2="96.95" y1="15.95" y2="15.95" stroke="#000" stroke-width=".01"/><line x1="96.95" x2="96.05" y1="15.9" y2="15.9" stroke="#000" stroke-width=".01"/><line x1="96.05" x2="96.95" y1="15.85" y2="15.85" stroke="#000" stroke-width=".01"/><line x1="96.95" x2="96.05" y1="15.8" y2="15.8" stroke="#000" stroke-width=".01"/><line x1="96.05" x2="96.95" y1="15.75" y2="15.75" stroke="#000" stroke-width=".01"/><line x1="96.95" x2="96.05" y1="15.7" y2="15.7" stroke="#000" stroke-width=".01"/><line x1="96.05" x2="96.95" y1="15.65" y2="15.65" stroke="#000" stroke-width=".01"/><line x1="96.95" x2="96.05" y1="15.6" y2="15.6" stroke="#000" stroke-width=".01"/><line x1="96.05" x2="96.95" y1="15.55" y2="15.55" stroke="#000" stroke-width=".01"/><line x1="96.95" x2="96.05" y1="15.5" y2="15.5" stroke="#000" stroke-width=".01"/><line x1="96.05" x2="96.95" y1="15.45" y2="15.45" stroke="#000" stroke-width=".01"/><line x1="96.95" x2="96.05" y1="15.4" y2="15.4" stroke="#000" stroke-width=".01"/><line x1="96.05" x2="96.95" y1="15.35" y2="15.35" stroke="#000" stroke-width=".01"/><line x1="96.95" x2="96.05" y1="15.3" y2="15.3" stroke="#000" stroke-width=".01"/><rect width="1" height="3" x="104" y="19" fill="#D9D9CD" stroke="#000" stroke-width=".1" rx="0"/><rect width="1" height="3" x="104" y="19" fill="none" stroke="#000" stroke-width=".01" rx="0"/><rect width=".8" height="1.2" x="104.1" y="19.1" fill="#D9D9CD" stroke="#000" stroke-width=".1" rx="0"/><rect width=".8" height="1.2" x="104.1" y="19.1" fill="none" stroke="#000" stroke-width=".01" rx="0"/><line x1="104.1" x2="104.9" y1="19.3" y2="19.3" stroke="#000" stroke-width=".01"/><line x1="104.9" x2="104.1" y1="19.5" y2="19.5" stroke="#000" stroke-width=".01"/><line x1="104.1" x2="104.9" y1="19.7" y2="19.7" stroke="#000" stroke-width=".01"/><line x1="104.1" x2="104.9" y1="19.9" y2="19.9" stroke="#000" stroke-width=".01"/><line x1="104.9" x2="104.1" y1="20.1" y2="20.1" stroke="#000" stroke-width=".01"/><rect width=".55" height=".3" x="104.1" y="20.4" fill="#D9D9CD" stroke="#000" stroke-width=".1" rx="0"/><rect width=".55" height=".3" x="104.1" y="20.4" fill="none" stroke="#000" stroke-width=".01" rx="0"/><line x1="104" x2="105" y1="20.9" y2="20.9" stroke="#000" stroke-width=".01"/><rect width=".05" height=".05" x="104.45" y="21" fill="#00CD00" stroke="#000" stroke-width=".1" rx="0"/><rect width=".05" height=".05" x="104.45" y="21" fill="none" stroke="#000" stroke-width=".01" rx="0"/><rect width=".05" height=".05" x="104.65" y="21" fill="#CDCD00" stroke="#000" stroke-width=".1" rx="0"/><rect width=".05" height=".05" x="104.65" y="21" fill="none" stroke="#000" stroke-width=".01" rx="0"/><rect width=".05" height=".05" x="104.85" y="21" fill="#CD0000" stroke="#000" stroke-width=".1" rx="0"/><rect width=".05" height=".05" x="104.85" y="21" fill="none" stroke="#000" stroke-width=".01" rx="0"/><rect width=".1" height=".1" x="104.8" y="20.7" fill="#CDCDBD" stroke="#000" stroke-width=".1" rx="0"/><rect width=".1" height=".1" x="104.8" y="20.7" fill="none" stroke="#000" stroke-width=".01" rx="0"/><line x1="104.1" x2="104.65" y1="20.55" y2="20.55" stroke="#000" stroke-width=".01"/><rect width=".15" height=".15" x="104.1" y="20.95" fill="#CDCDBD" stroke="#000" stroke-width=".1" rx="0"/><rect width=".15" height=".15" x="104.1" y="20.95" fill="none" stroke="#000" stroke-width=".01" rx="0"/><rect width=".7" height=".05" x="104.15" y="20.15" fill="#CDCDC1" stroke="#000" stroke-width=".1" rx="0"/><rect width=".7" height=".05" x="104.15" y="20.15" fill="none" stroke="#000" stroke-width=".01" rx="0"/><line x1="104.15" x2="104.6" y1="20.45" y2="20.45" stroke="#000" stroke-width=".01"/><line x1="104.6" x2="104.55" y1="20.5" y2="20.5" stroke="#000" stroke-width=".01"/><line x1="104.15" x2="104.2" y1="20.5" y2="20.5" stroke="#000" stroke-width=".01"/><rect width=".25" height=".05" x="104.25" y="20.45" fill="#CDCDC1" stroke="#000" stroke-width=".1" rx="0"/><rect width=".25" height=".05" x="104.25" y="20.45" fill="none" stroke="#000" stroke-width=".01" rx="0"/><line x1="104.15" x2="104.2" y1="20.25" y2="20.25" stroke="#000" stroke-width=".01"/><line x1="104.25" x2="104.3" y1="20.25" y2="20.25" stroke="#000" stroke-width=".01"/><line x1="104.75" x2="104.85" y1="20.25" y2="20.25" stroke="#000" stroke-width=".01"/><line x1="104.05" x2="104.95" y1="21.95" y2="21.95" stroke="#000" stroke-width=".01"/><line x1="104.95" x2="104.05" y1="21.9" y2="21.9" stroke="#000" stroke-width=".01"/><line x1="104.05" x2="104.95" y1="21.85" y2="21.85" stroke="#000" stroke-width=".01"/><line x1="104.95" x2="104.05" y1="21.8" y2="21.8" stroke="#000" stroke-width=".01"/><line x1="104.05" x2="104.95" y1="21.75" y2="21.75" stroke="#000" stroke-width=".01"/><line x1="104.95" x2="104.05" y1="21.7" y2="21.7" stroke="#000" stroke-width=".01"/><line x1="104.05" x2="104.95" y1="21.65" y2="21.65" stroke="#000" stroke-width=".01"/><line x1="104.95" x2="104.05" y1="21.6" y2="21.6" stroke="#000" stroke-width=".01"/><line x1="104.05" x2="104.95" y1="21.55" y2="21.55" stroke="#000" stroke-width=".01"/><line x1="104.95" x2="104.05" y1="21.5" y2="21.5" stroke="#000" stroke-width=".01"/><line x1="104.05" x2="104.95" y1="21.45" y2="21.45" stroke="#000" stroke-width=".01"/><line x1="104.95" x2="104.05" y1="21.4" y2="21.4" stroke="#000" stroke-width=".01"/><line x1="104.05" x2="104.95" y1="21.35" y2="21.35" stroke="#000" stroke-width=".01"/><line x1="104.95" x2="104.05" y1="21.3" y2="21.3" stroke="#000" stroke-width=".01"/><rect width="1" height="3" x="88" y="19" fill="#D9D9CD" stroke="#000" stroke-width=".1" rx="0"/><rect width="1" height="3" x="88" y="19" fill="none" stroke="#000" stroke-width=".01" rx="0"/><rect width=".8" height="1.2" x="88.1" y="19.1" fill="#D9D9CD" stroke="#000" stroke-width=".1" rx="0"/><rect width=".8" height="1.2" x="88.1" y="19.1" fill="none" stroke="#000" stroke-width=".01" rx="0"/><line x1="88.1" x2="88.9" y1="19.3" y2="19.3" stroke="#000" stroke-width=".01"/><line x1="88.9" x2="88.1" y1="19.5" y2="19.5" stroke="#000" stroke-width=".01"/><line x1="88.1" x2="88.9" y1="19.7" y2="19.7" stroke="#000" stroke-width=".01"/><line x1="88.1" x2="88.9" y1="19.9" y2="19.9" stroke="#000" stroke-width=".01"/><line x1="88.9" x2="88.1" y1="20.1" y2="20.1" stroke="#000" stroke-width=".01"/><rect width=".55" height=".3" x="88.1" y="20.4" fill="#D9D9CD" stroke="#000" stroke-width=".1" rx="0"/><rect width=".55" height=".3" x="88.1" y="20.4" fill="none" stroke="#000" stroke-width=".01" rx="0"/><line x1="88" x2="89" y1="20.9" y2="20.9" stroke="#000" stroke-width=".01"/><rect width=".05" height=".05" x="88.45" y="21" fill="#00CD00" stroke="#000" stroke-width=".1" rx="0"/><rect width=".05" height=".05" x="88.45" y="21" fill="none" stroke="#000" stroke-width=".01" rx="0"/><rect width=".05" height=".05" x="88.65" y="21" fill="#CDCD00" stroke="#000" stroke-width=".1" rx="0"/><rect width=".05" height=".05" x="88.65" y="21" fill="none" stroke="#000" stroke-width=".01" rx="0"/><rect width=".05" height=".05" x="88.85" y="21" fill="#CD0000" stroke="#000" stroke-width=".1" rx="0"/><rect width=".05" height=".05" x="88.85" y="21" fill="none" stroke="#000" stroke-width=".01" rx="0"/><rect width=".1" height=".1" x="88.8" y="20.7" fill="#CDCDBD" stroke="#000" stroke-width=".1" rx="0"/><rect width=".1" height=".1" x="88.8" y="20.7" fill="none" stroke="#000" stroke-width=".01" rx="0"/><line x1="88.1" x2="88.65" y1="20.55" y2="20.55" stroke="#000" stroke-width=".01"/><rect width=".15" height=".15" x="88.1" y="20.95" fill="#CDCDBD" stroke="#000" stroke-width=".1" rx="0"/><rect width=".15" height=".15" x="88.1" y="20.95" fill="none" stroke="#000" stroke-width=".01" rx="0"/><rect width=".7" height=".05" x="88.15" y="20.15" fill="#CDCDC1" stroke="#000" stroke-width=".1" rx="0"/><rect width=".7" height=".05" x="88.15" y="20.15" fill="none" stroke="#000" stroke-width=".01" rx="0"/><line x1="88.15" x2="88.6" y1="20.45" y2="20.45" stroke="#000" stroke-width=".01"/><line x1="88.6" x2="88.55" y1="20.5" y2="20.5" stroke="#000" stroke-width=".01"/><line x1="88.15" x2="88.2" y1="20.5" y2="20.5" stroke="#000" stroke-width=".01"/><rect width=".25" height=".05" x="88.25" y="20.45" fill="#CDCDC1" stroke="#000" stroke-width=".1" rx="0"/><rect width=".25" height=".05" x="88.25" y="20.45" fill="none" stroke="#000" stroke-width=".01" rx="0"/><line x1="88.15" x2="88.2" y1="20.25" y2="20.25" stroke="#000" stroke-width=".01"/><line x1="88.25" x2="88.3" y1="20.25" y2="20.25" stroke="#000" stroke-width=".01"/><line x1="88.75" x2="88.85" y1="20.25" y2="20.25" stroke="#000" stroke-width=".01"/><line x1="88.05" x2="88.95" y1="21.95" y2="21.95" stroke="#000" stroke-width=".01"/><line x1="88.95" x2="88.05" y1="21.9" y2="21.9" stroke="#000" stroke-width=".01"/><line x1="88.05" x2="88.95" y1="21.85" y2="21.85" stroke="#000" stroke-width=".01"/><line x1="88.95" x2="88.05" y1="21.8" y2="21.8" stroke="#000" stroke-width=".01"/><line x1="88.05" x2="88.95" y1="21.75" y2="21.75" stroke="#000" stroke-width=".01"/><line x1="88.95" x2="88.05" y1="21.7" y2="21.7" stroke="#000" stroke-width=".01"/><line x1="88.05" x2="88.95" y1="21.65" y2="21.65" stroke="#000" stroke-width=".01"/><line x1="88.95" x2="88.05" y1="21.6" y2="21.6" stroke="#000" stroke-width=".01"/><line x1="88.05" x2="88.95" y1="21.55" y2="21.55" stroke="#000" stroke-width=".01"/><line x1="88.95" x2="88.05" y1="21.5" y2="21.5" stroke="#000" stroke-width=".01"/><line x1="88.05" x2="88.95" y1="21.45" y2="21.45" stroke="#000" stroke-width=".01"/><line x1="88.95" x2="88.05" y1="21.4" y2="21.4" stroke="#000" stroke-width=".01"/><line x1="88.05" x2="88.95" y1="21.35" y2="21.35" stroke="#000" stroke-width=".01"/><line x1="88.95" x2="88.05" y1="21.3" y2="21.3" stroke="#000" stroke-width=".01"/><rect width="1.942" height="4.532" x="35.388" y="14" fill="#B3B3B3" stroke="#000" stroke-width=".08" rx="0"/><rect width="1.554" height=".518" x="35.583" y="14.272" fill="none" stroke="#000" stroke-width=".01" rx="0"/><rect width="1.554" height=".518" x="35.583" y="14.79" fill="none" stroke="#000" stroke-width=".01" rx="0"/><rect width="1.554" height=".518" x="35.583" y="15.308" fill="none" stroke="#000" stroke-width=".01" rx="0"/><rect width="1.554" height=".518" x="35.583" y="15.826" fill="none" stroke="#000" stroke-width=".01" rx="0"/><rect width=".971" height=".311" x="35.583" y="16.447" fill="none" stroke="#000" stroke-width=".01" rx="0"/><ellipse cx="37.039" cy="16.499" fill="#0F0" stroke="#000" stroke-width=".01" rx=".068" ry=".068"/><ellipse cx="37.039" cy="16.706" fill="#FF0" stroke="#000" stroke-width=".01" rx=".068" ry=".068"/><rect width=".233" height=".207" x="36.651" y="16.551" fill="#FFF" stroke="#000" stroke-width=".01" rx="0"/><path fill="none" stroke="#000" stroke-width=".01" d="M 35.712,17.172 L 35.712,18.305"/><path fill="none" stroke="#000" stroke-width=".01" d="M 36.036,17.172 L 36.036,18.305"/><path fill="none" stroke="#000" stroke-width=".01" d="M 36.360,17.172 L 36.360,18.305"/><path fill="none" stroke="#000" stroke-width=".01" d="M 36.683,17.172 L 36.683,18.305"/><path fill="none" stroke="#000" stroke-width=".01" d="M 37.007,17.172 L 37.007,18.305"/><path fill="none" stroke="#000" stroke-width=".01" d="M 37.331,17.172 L 37.331,18.305"/><polygon fill="#999" stroke="#000" stroke-width=".01" points="35 18.92 35.388 18.144 35.388 18.532 37.331 18.532 37.331 18.144 37.849 18.92"/><text x="36.424" y="19.844" fill="#000" font-family="sans" font-size="1.06" font-style="normal" font-weight="400" text-anchor="middle">Central Server</text><rect width="1.942" height="4.532" x="54.888" y="14" fill="#B3B3B3" stroke="#000" stroke-width=".08" rx="0"/><rect width="1.554" height=".518" x="55.083" y="14.272" fill="none" stroke="#000" stroke-width=".01" rx="0"/><rect width="1.554" height=".518" x="55.083" y="14.79" fill="none" stroke="#000" stroke-width=".01" rx="0"/><rect width="1.554" height=".518" x="55.083" y="15.308" fill="none" stroke="#000" stroke-width=".01" rx="0"/><rect width="1.554" height=".518" x="55.083" y="15.826" fill="none" stroke="#000" stroke-width=".01" rx="0"/><rect width=".971" height=".311" x="55.083" y="16.447" fill="none" stroke="#000" stroke-width=".01" rx="0"/><ellipse cx="56.539" cy="16.499" fill="#0F0" stroke="#000" stroke-width=".01" rx=".068" ry=".068"/><ellipse cx="56.539" cy="16.706" fill="#FF0" stroke="#000" stroke-width=".01" rx=".068" ry=".068"/><rect width=".233" height=".207" x="56.151" y="16.551" fill="#FFF" stroke="#000" stroke-width=".01" rx="0"/><path fill="none" stroke="#000" stroke-width=".01" d="M 55.212,17.172 L 55.212,18.305"/><path fill="none" stroke="#000" stroke-width=".01" d="M 55.536,17.172 L 55.536,18.305"/><path fill="none" stroke="#000" stroke-width=".01" d="M 55.860,17.172 L 55.860,18.305"/><path fill="none" stroke="#000" stroke-width=".01" d="M 56.183,17.172 L 56.183,18.305"/><path fill="none" stroke="#000" stroke-width=".01" d="M 56.507,17.172 L 56.507,18.305"/><path fill="none" stroke="#000" stroke-width=".01" d="M 56.831,17.172 L 56.831,18.305"/><polygon fill="#999" stroke="#000" stroke-width=".01" points="54.5 18.92 54.888 18.144 54.888 18.532 56.831 18.532 56.831 18.144 57.349 18.92"/><text x="55.924" y="19.844" fill="#000" font-family="sans" font-size="1.06" font-style="normal" font-weight="400" text-anchor="middle">Central Server</text><rect width="1.942" height="4.532" x="63.388" y="14" fill="#B3B3B3" stroke="#000" stroke-width=".08" rx="0"/><rect width="1.554" height=".518" x="63.583" y="14.272" fill="none" stroke="#000" stroke-width=".01" rx="0"/><rect width="1.554" height=".518" x="63.583" y="14.79" fill="none" stroke="#000" stroke-width=".01" rx="0"/><rect width="1.554" height=".518" x="63.583" y="15.308" fill="none" stroke="#000" stroke-width=".01" rx="0"/><rect width="1.554" height=".518" x="63.583" y="15.826" fill="none" stroke="#000" stroke-width=".01" rx="0"/><rect width=".971" height=".311" x="63.583" y="16.447" fill="none" stroke="#000" stroke-width=".01" rx="0"/><ellipse cx="65.039" cy="16.499" fill="#0F0" stroke="#000" stroke-width=".01" rx=".068" ry=".068"/><ellipse cx="65.039" cy="16.706" fill="#FF0" stroke="#000" stroke-width=".01" rx=".068" ry=".068"/><rect width=".233" height=".207" x="64.651" y="16.551" fill="#FFF" stroke="#000" stroke-width=".01" rx="0"/><path fill="none" stroke="#000" stroke-width=".01" d="M 63.712,17.172 L 63.712,18.305"/><path fill="none" stroke="#000" stroke-width=".01" d="M 64.036,17.172 L 64.036,18.305"/><path fill="none" stroke="#000" stroke-width=".01" d="M 64.360,17.172 L 64.360,18.305"/><path fill="none" stroke="#000" stroke-width=".01" d="M 64.683,17.172 L 64.683,18.305"/><path fill="none" stroke="#000" stroke-width=".01" d="M 65.007,17.172 L 65.007,18.305"/><path fill="none" stroke="#000" stroke-width=".01" d="M 65.331,17.172 L 65.331,18.305"/><polygon fill="#999" stroke="#000" stroke-width=".01" points="63 18.92 63.388 18.144 63.388 18.532 65.331 18.532 65.331 18.144 65.849 18.92"/><text x="64.424" y="19.844" fill="#000" font-family="sans" font-size="1.06" font-style="normal" font-weight="400" text-anchor="middle">Central Server</text><rect width="1.942" height="4.532" x="71.388" y="14" fill="#B3B3B3" stroke="#000" stroke-width=".08" rx="0"/><rect width="1.554" height=".518" x="71.583" y="14.272" fill="none" stroke="#000" stroke-width=".01" rx="0"/><rect width="1.554" height=".518" x="71.583" y="14.79" fill="none" stroke="#000" stroke-width=".01" rx="0"/><rect width="1.554" height=".518" x="71.583" y="15.308" fill="none" stroke="#000" stroke-width=".01" rx="0"/><rect width="1.554" height=".518" x="71.583" y="15.826" fill="none" stroke="#000" stroke-width=".01" rx="0"/><rect width=".971" height=".311" x="71.583" y="16.447" fill="none" stroke="#000" stroke-width=".01" rx="0"/><ellipse cx="73.039" cy="16.499" fill="#0F0" stroke="#000" stroke-width=".01" rx=".068" ry=".068"/><ellipse cx="73.039" cy="16.706" fill="#FF0" stroke="#000" stroke-width=".01" rx=".068" ry=".068"/><rect width=".233" height=".207" x="72.651" y="16.551" fill="#FFF" stroke="#000" stroke-width=".01" rx="0"/><path fill="none" stroke="#000" stroke-width=".01" d="M 71.712,17.172 L 71.712,18.305"/><path fill="none" stroke="#000" stroke-width=".01" d="M 72.036,17.172 L 72.036,18.305"/><path fill="none" stroke="#000" stroke-width=".01" d="M 72.360,17.172 L 72.360,18.305"/><path fill="none" stroke="#000" stroke-width=".01" d="M 72.683,17.172 L 72.683,18.305"/><path fill="none" stroke="#000" stroke-width=".01" d="M 73.007,17.172 L 73.007,18.305"/><path fill="none" stroke="#000" stroke-width=".01" d="M 73.331,17.172 L 73.331,18.305"/><polygon fill="#999" stroke="#000" stroke-width=".01" points="71 18.92 71.388 18.144 71.388 18.532 73.331 18.532 73.331 18.144 73.849 18.92"/><text x="72.424" y="19.844" fill="#000" font-family="sans" font-size="1.06" font-style="normal" font-weight="400" text-anchor="middle">Central Server</text><path fill="#C9C9B6" stroke="none" stroke-width=".001" d="M 27.405,34.887 L 27.862,34.460 L 31.278,34.460 L 30.821,34.887 L 27.405,34.887 z"/><path fill="none" stroke="#494936" stroke-width=".001" d="M 27.405,34.887 L 27.862,34.460 L 31.278,34.460 L 30.821,34.887 L 27.405,34.887"/><path fill="#B7B79D" stroke="none" stroke-width=".001" d="M 27.405,34.887 L 30.821,34.887 L 30.821,35.528 L 27.405,35.528 L 27.405,34.887 z"/><path fill="none" stroke="#494936" stroke-width=".001" d="M 27.405,34.887 L 30.821,34.887 L 30.821,35.528 L 27.405,35.528 L 27.405,34.887"/><path fill="#7A7A5A" stroke="none" stroke-width=".001" d="M 30.821,35.528 L 31.278,35.073 L 31.278,34.460 L 30.821,34.887 L 30.821,35.528 z"/><path fill="none" stroke="#494936" stroke-width=".001" d="M 30.821,35.528 L 31.278,35.073 L 31.278,34.460 L 30.821,34.887 L 30.821,35.528"/><path fill="#000" stroke="none" stroke-width=".001" d="M 27.513,34.806 L 27.862,34.460 L 31.197,34.460 L 30.847,34.806 L 27.513,34.806 z"/><path fill="none" stroke="#000" stroke-width=".001" d="M 27.513,34.806 L 27.862,34.460 L 31.197,34.460 L 30.847,34.806 L 27.513,34.806"/><path fill="#C9C9B6" stroke="none" stroke-width=".001" d="M 27.405,32.051 L 27.782,31.704 L 31.197,31.704 L 30.821,32.051 L 27.405,32.051 z"/><path fill="none" stroke="#494936" stroke-width=".001" d="M 27.405,32.051 L 27.782,31.704 L 31.197,31.704 L 30.821,32.051 L 27.405,32.051"/><path fill="#B7B79D" stroke="none" stroke-width=".001" d="M 27.405,32.051 L 30.847,32.051 L 30.847,34.753 L 27.405,34.753 L 27.405,32.051 z"/><path fill="none" stroke="#494936" stroke-width=".001" d="M 27.405,32.051 L 30.846,32.051 L 30.846,34.752 L 27.405,34.752 L 27.405,32.051"/><path fill="#FFF" stroke="none" stroke-width=".001" d="M 27.703,32.399 L 30.552,32.399 L 30.552,34.486 L 27.703,34.486 L 27.703,32.399 z"/><path fill="none" stroke="#494936" stroke-width=".001" d="M 27.703,32.399 L 30.551,32.399 L 30.551,34.484 L 27.703,34.484 L 27.703,32.399"/><path fill="#7A7A5A" stroke="none" stroke-width=".001" d="M 30.821,34.725 L 31.197,34.351 L 31.197,31.704 L 30.821,32.051 L 30.821,34.725 z"/><path fill="none" stroke="#494936" stroke-width=".001" d="M 30.821,34.725 L 31.197,34.351 L 31.197,31.704 L 30.821,32.051 L 30.821,34.725"/><path fill="#C9C9B6" stroke="none" stroke-width=".001" d="M 26.734,36.063 L 27.271,35.395 L 30.981,35.395 L 30.444,36.063 L 26.734,36.063 z"/><path fill="none" stroke="#494936" stroke-width=".001" d="M 26.737,36.059 L 27.271,35.395 L 30.981,35.395 L 30.444,36.063 L 26.737,36.063"/><path fill="#7A7A5A" stroke="none" stroke-width=".001" d="M 30.444,36.198 L 30.981,35.635 L 30.981,35.395 L 30.444,36.063 L 30.444,36.198 z"/><path fill="none" stroke="#494936" stroke-width=".001" d="M 30.446,36.194 L 30.981,35.635 L 30.981,35.395 L 30.444,36.063 L 30.444,36.194"/><path fill="#B7B79D" stroke="none" stroke-width=".001" d="M 26.734,36.063 L 30.444,36.063 L 30.444,36.198 L 26.734,36.198 L 26.734,36.063 z"/><path fill="none" stroke="#494936" stroke-width=".001" d="M 26.737,36.063 L 30.444,36.063 L 30.444,36.194"/><text x="67.473" y="16.457" fill="#000" font-family="sans" font-size="2.82" font-style="normal" font-weight="400" text-anchor="start">...</text><path fill="#C9C9B6" stroke="none" stroke-width=".001" d="M 92.671,17.183 L 93.128,16.756 L 96.544,16.756 L 96.087,17.183 L 92.671,17.183 z"/><path fill="none" stroke="#494936" stroke-width=".001" d="M 92.671,17.183 L 93.128,16.756 L 96.544,16.756 L 96.087,17.183 L 92.671,17.183"/><path fill="#B7B79D" stroke="none" stroke-width=".001" d="M 92.671,17.183 L 96.087,17.183 L 96.087,17.824 L 92.671,17.824 L 92.671,17.183 z"/><path fill="none" stroke="#494936" stroke-width=".001" d="M 92.671,17.183 L 96.087,17.183 L 96.087,17.824 L 92.671,17.824 L 92.671,17.183"/><path fill="#7A7A5A" stroke="none" stroke-width=".001" d="M 96.087,17.824 L 96.544,17.369 L 96.544,16.756 L 96.087,17.183 L 96.087,17.824 z"/><path fill="none" stroke="#494936" stroke-width=".001" d="M 96.087,17.824 L 96.544,17.369 L 96.544,16.756 L 96.087,17.183 L 96.087,17.824"/><path fill="#000" stroke="none" stroke-width=".001" d="M 92.779,17.102 L 93.128,16.756 L 96.463,16.756 L 96.113,17.102 L 92.779,17.102 z"/><path fill="none" stroke="#000" stroke-width=".001" d="M 92.779,17.102 L 93.128,16.756 L 96.463,16.756 L 96.113,17.102 L 92.779,17.102"/><path fill="#C9C9B6" stroke="none" stroke-width=".001" d="M 92.671,14.347 L 93.048,14.000 L 96.463,14.000 L 96.087,14.347 L 92.671,14.347 z"/><path fill="none" stroke="#494936" stroke-width=".001" d="M 92.671,14.347 L 93.048,14.000 L 96.463,14.000 L 96.087,14.347 L 92.671,14.347"/><path fill="#B7B79D" stroke="none" stroke-width=".001" d="M 92.671,14.347 L 96.113,14.347 L 96.113,17.049 L 92.671,17.049 L 92.671,14.347 z"/><path fill="none" stroke="#494936" stroke-width=".001" d="M 92.671,14.347 L 96.112,14.347 L 96.112,17.048 L 92.671,17.048 L 92.671,14.347"/><path fill="#FFF" stroke="none" stroke-width=".001" d="M 92.969,14.695 L 95.818,14.695 L 95.818,16.782 L 92.969,16.782 L 92.969,14.695 z"/><path fill="none" stroke="#494936" stroke-width=".001" d="M 92.969,14.695 L 95.818,14.695 L 95.818,16.780 L 92.969,16.780 L 92.969,14.695"/><path fill="#7A7A5A" stroke="none" stroke-width=".001" d="M 96.087,17.021 L 96.463,16.647 L 96.463,14.000 L 96.087,14.347 L 96.087,17.021 z"/><path fill="none" stroke="#494936" stroke-width=".001" d="M 96.087,17.021 L 96.463,16.647 L 96.463,14.000 L 96.087,14.347 L 96.087,17.021"/><path fill="#C9C9B6" stroke="none" stroke-width=".001" d="M 92.000,18.359 L 92.538,17.691 L 96.247,17.691 L 95.710,18.359 L 92.000,18.359 z"/><path fill="none" stroke="#494936" stroke-width=".001" d="M 92.004,18.355 L 92.538,17.691 L 96.247,17.691 L 95.710,18.359 L 92.004,18.359"/><path fill="#7A7A5A" stroke="none" stroke-width=".001" d="M 95.710,18.494 L 96.247,17.931 L 96.247,17.691 L 95.710,18.359 L 95.710,18.494 z"/><path fill="none" stroke="#494936" stroke-width=".001" d="M 95.712,18.490 L 96.247,17.931 L 96.247,17.691 L 95.710,18.359 L 95.710,18.490"/><path fill="#B7B79D" stroke="none" stroke-width=".001" d="M 92.000,18.359 L 95.710,18.359 L 95.710,18.494 L 92.000,18.494 L 92.000,18.359 z"/><path fill="none" stroke="#494936" stroke-width=".001" d="M 92.004,18.359 L 95.710,18.359 L 95.710,18.490"/><path fill="#C9C9B6" stroke="none" stroke-width=".001" d="M 33.409,34.943 L 33.867,34.516 L 37.282,34.516 L 36.826,34.943 L 33.409,34.943 z"/><path fill="none" stroke="#494936" stroke-width=".001" d="M 33.409,34.943 L 33.867,34.516 L 37.282,34.516 L 36.826,34.943 L 33.409,34.943"/><path fill="#B7B79D" stroke="none" stroke-width=".001" d="M 33.409,34.943 L 36.826,34.943 L 36.826,35.585 L 33.409,35.585 L 33.409,34.943 z"/><path fill="none" stroke="#494936" stroke-width=".001" d="M 33.409,34.943 L 36.826,34.943 L 36.826,35.585 L 33.409,35.585 L 33.409,34.943"/><path fill="#7A7A5A" stroke="none" stroke-width=".001" d="M 36.826,35.585 L 37.282,35.129 L 37.282,34.516 L 36.826,34.943 L 36.826,35.585 z"/><path fill="none" stroke="#494936" stroke-width=".001" d="M 36.826,35.585 L 37.282,35.129 L 37.282,34.516 L 36.826,34.943 L 36.826,35.585"/><path fill="#000" stroke="none" stroke-width=".001" d="M 33.518,34.863 L 33.867,34.516 L 37.202,34.516 L 36.852,34.863 L 33.518,34.863 z"/><path fill="none" stroke="#000" stroke-width=".001" d="M 33.518,34.863 L 33.867,34.516 L 37.202,34.516 L 36.852,34.863 L 33.518,34.863"/><path fill="#C9C9B6" stroke="none" stroke-width=".001" d="M 33.409,32.107 L 33.787,31.760 L 37.202,31.760 L 36.826,32.107 L 33.409,32.107 z"/><path fill="none" stroke="#494936" stroke-width=".001" d="M 33.409,32.107 L 33.787,31.760 L 37.202,31.760 L 36.826,32.107 L 33.409,32.107"/><path fill="#B7B79D" stroke="none" stroke-width=".001" d="M 33.409,32.107 L 36.851,32.107 L 36.851,34.810 L 33.409,34.810 L 33.409,32.107 z"/><path fill="none" stroke="#494936" stroke-width=".001" d="M 33.409,32.107 L 36.850,32.107 L 36.850,34.808 L 33.409,34.808 L 33.409,32.107"/><path fill="#FFF" stroke="none" stroke-width=".001" d="M 33.707,32.455 L 36.557,32.455 L 36.557,34.542 L 33.707,34.542 L 33.707,32.455 z"/><path fill="none" stroke="#494936" stroke-width=".001" d="M 33.707,32.455 L 36.556,32.455 L 36.556,34.541 L 33.707,34.541 L 33.707,32.455"/><path fill="#7A7A5A" stroke="none" stroke-width=".001" d="M 36.826,34.781 L 37.202,34.407 L 37.202,31.760 L 36.826,32.107 L 36.826,34.781 z"/><path fill="none" stroke="#494936" stroke-width=".001" d="M 36.826,34.781 L 37.202,34.407 L 37.202,31.760 L 36.826,32.107 L 36.826,34.781"/><path fill="#C9C9B6" stroke="none" stroke-width=".001" d="M 32.739,36.119 L 33.276,35.451 L 36.985,35.451 L 36.448,36.119 L 32.739,36.119 z"/><path fill="none" stroke="#494936" stroke-width=".001" d="M 32.742,36.115 L 33.276,35.451 L 36.985,35.451 L 36.448,36.119 L 32.742,36.119"/><path fill="#7A7A5A" stroke="none" stroke-width=".001" d="M 36.448,36.254 L 36.985,35.692 L 36.985,35.451 L 36.448,36.119 L 36.448,36.254 z"/><path fill="none" stroke="#494936" stroke-width=".001" d="M 36.451,36.250 L 36.985,35.692 L 36.985,35.451 L 36.448,36.119 L 36.448,36.250"/><path fill="#B7B79D" stroke="none" stroke-width=".001" d="M 32.739,36.119 L 36.448,36.119 L 36.448,36.254 L 32.739,36.254 L 32.739,36.119 z"/><path fill="none" stroke="#494936" stroke-width=".001" d="M 32.742,36.119 L 36.448,36.119 L 36.448,36.250"/><path fill="#C9C9B6" stroke="none" stroke-width=".001" d="M 41.668,34.873 L 42.125,34.447 L 45.541,34.447 L 45.084,34.873 L 41.668,34.873 z"/><path fill="none" stroke="#494936" stroke-width=".001" d="M 41.668,34.873 L 42.125,34.447 L 45.541,34.447 L 45.084,34.873 L 41.668,34.873"/><path fill="#B7B79D" stroke="none" stroke-width=".001" d="M 41.668,34.873 L 45.084,34.873 L 45.084,35.515 L 41.668,35.515 L 41.668,34.873 z"/><path fill="none" stroke="#494936" stroke-width=".001" d="M 41.668,34.873 L 45.084,34.873 L 45.084,35.515 L 41.668,35.515 L 41.668,34.873"/><path fill="#7A7A5A" stroke="none" stroke-width=".001" d="M 45.084,35.515 L 45.541,35.060 L 45.541,34.447 L 45.084,34.873 L 45.084,35.515 z"/><path fill="none" stroke="#494936" stroke-width=".001" d="M 45.084,35.515 L 45.541,35.060 L 45.541,34.447 L 45.084,34.873 L 45.084,35.515"/><path fill="#000" stroke="none" stroke-width=".001" d="M 41.776,34.793 L 42.125,34.447 L 45.460,34.447 L 45.110,34.793 L 41.776,34.793 z"/><path fill="none" stroke="#000" stroke-width=".001" d="M 41.776,34.793 L 42.125,34.447 L 45.460,34.447 L 45.110,34.793 L 41.776,34.793"/><path fill="#C9C9B6" stroke="none" stroke-width=".001" d="M 41.668,32.038 L 42.045,31.691 L 45.460,31.691 L 45.084,32.038 L 41.668,32.038 z"/><path fill="none" stroke="#494936" stroke-width=".001" d="M 41.668,32.038 L 42.045,31.691 L 45.460,31.691 L 45.084,32.038 L 41.668,32.038"/><path fill="#B7B79D" stroke="none" stroke-width=".001" d="M 41.668,32.038 L 45.110,32.038 L 45.110,34.740 L 41.668,34.740 L 41.668,32.038 z"/><path fill="none" stroke="#494936" stroke-width=".001" d="M 41.668,32.038 L 45.109,32.038 L 45.109,34.739 L 41.668,34.739 L 41.668,32.038"/><path fill="#FFF" stroke="none" stroke-width=".001" d="M 41.966,32.386 L 44.815,32.386 L 44.815,34.473 L 41.966,34.473 L 41.966,32.386 z"/><path fill="none" stroke="#494936" stroke-width=".001" d="M 41.966,32.386 L 44.815,32.386 L 44.815,34.471 L 41.966,34.471 L 41.966,32.386"/><path fill="#7A7A5A" stroke="none" stroke-width=".001" d="M 45.084,34.712 L 45.460,34.338 L 45.460,31.691 L 45.084,32.038 L 45.084,34.712 z"/><path fill="none" stroke="#494936" stroke-width=".001" d="M 45.084,34.712 L 45.460,34.338 L 45.460,31.691 L 45.084,32.038 L 45.084,34.712"/><path fill="#C9C9B6" stroke="none" stroke-width=".001" d="M 40.997,36.050 L 41.535,35.382 L 45.244,35.382 L 44.707,36.050 L 40.997,36.050 z"/><path fill="none" stroke="#494936" stroke-width=".001" d="M 41.001,36.045 L 41.535,35.382 L 45.244,35.382 L 44.707,36.050 L 41.001,36.050"/><path fill="#7A7A5A" stroke="none" stroke-width=".001" d="M 44.707,36.185 L 45.244,35.622 L 45.244,35.382 L 44.707,36.050 L 44.707,36.185 z"/><path fill="none" stroke="#494936" stroke-width=".001" d="M 44.709,36.181 L 45.244,35.622 L 45.244,35.382 L 44.707,36.050 L 44.707,36.181"/><path fill="#B7B79D" stroke="none" stroke-width=".001" d="M 40.997,36.050 L 44.707,36.050 L 44.707,36.185 L 40.997,36.185 L 40.997,36.050 z"/><path fill="none" stroke="#494936" stroke-width=".001" d="M 41.001,36.050 L 44.707,36.050 L 44.707,36.181"/><text x="38.319" y="33.809" fill="#000" font-family="sans" font-size="2.82" font-style="normal" font-weight="400" text-anchor="start">...</text><path fill="#C9C9B6" stroke="none" stroke-width=".001" d="M 54.949,34.682 L 55.407,34.255 L 58.822,34.255 L 58.366,34.682 L 54.949,34.682 z"/><path fill="none" stroke="#494936" stroke-width=".001" d="M 54.949,34.682 L 55.407,34.255 L 58.822,34.255 L 58.366,34.682 L 54.949,34.682"/><path fill="#B7B79D" stroke="none" stroke-width=".001" d="M 54.949,34.682 L 58.366,34.682 L 58.366,35.323 L 54.949,35.323 L 54.949,34.682 z"/><path fill="none" stroke="#494936" stroke-width=".001" d="M 54.949,34.682 L 58.366,34.682 L 58.366,35.323 L 54.949,35.323 L 54.949,34.682"/><path fill="#7A7A5A" stroke="none" stroke-width=".001" d="M 58.366,35.323 L 58.822,34.868 L 58.822,34.255 L 58.366,34.682 L 58.366,35.323 z"/><path fill="none" stroke="#494936" stroke-width=".001" d="M 58.366,35.323 L 58.822,34.868 L 58.822,34.255 L 58.366,34.682 L 58.366,35.323"/><path fill="#000" stroke="none" stroke-width=".001" d="M 55.058,34.602 L 55.407,34.255 L 58.741,34.255 L 58.392,34.602 L 55.058,34.602 z"/><path fill="none" stroke="#000" stroke-width=".001" d="M 55.058,34.602 L 55.407,34.255 L 58.741,34.255 L 58.392,34.602 L 55.058,34.602"/><path fill="#C9C9B6" stroke="none" stroke-width=".001" d="M 54.949,31.846 L 55.327,31.499 L 58.741,31.499 L 58.366,31.846 L 54.949,31.846 z"/><path fill="none" stroke="#494936" stroke-width=".001" d="M 54.949,31.846 L 55.327,31.499 L 58.741,31.499 L 58.366,31.846 L 54.949,31.846"/><path fill="#B7B79D" stroke="none" stroke-width=".001" d="M 54.949,31.846 L 58.391,31.846 L 58.391,34.548 L 54.949,34.548 L 54.949,31.846 z"/><path fill="none" stroke="#494936" stroke-width=".001" d="M 54.949,31.846 L 58.390,31.846 L 58.390,34.547 L 54.949,34.547 L 54.949,31.846"/><path fill="#FFF" stroke="none" stroke-width=".001" d="M 55.247,32.194 L 58.097,32.194 L 58.097,34.281 L 55.247,34.281 L 55.247,32.194 z"/><path fill="none" stroke="#494936" stroke-width=".001" d="M 55.247,32.194 L 58.096,32.194 L 58.096,34.280 L 55.247,34.280 L 55.247,32.194"/><path fill="#7A7A5A" stroke="none" stroke-width=".001" d="M 58.366,34.520 L 58.741,34.146 L 58.741,31.499 L 58.366,31.846 L 58.366,34.520 z"/><path fill="none" stroke="#494936" stroke-width=".001" d="M 58.366,34.520 L 58.741,34.146 L 58.741,31.499 L 58.366,31.846 L 58.366,34.520"/><path fill="#C9C9B6" stroke="none" stroke-width=".001" d="M 54.278,35.858 L 54.816,35.190 L 58.525,35.190 L 57.988,35.858 L 54.278,35.858 z"/><path fill="none" stroke="#494936" stroke-width=".001" d="M 54.282,35.854 L 54.816,35.190 L 58.525,35.190 L 57.988,35.858 L 54.282,35.858"/><path fill="#7A7A5A" stroke="none" stroke-width=".001" d="M 57.988,35.993 L 58.525,35.431 L 58.525,35.190 L 57.988,35.858 L 57.988,35.993 z"/><path fill="none" stroke="#494936" stroke-width=".001" d="M 57.990,35.989 L 58.525,35.431 L 58.525,35.190 L 57.988,35.858 L 57.988,35.989"/><path fill="#B7B79D" stroke="none" stroke-width=".001" d="M 54.278,35.858 L 57.988,35.858 L 57.988,35.993 L 54.278,35.993 L 54.278,35.858 z"/><path fill="none" stroke="#494936" stroke-width=".001" d="M 54.282,35.858 L 57.988,35.858 L 57.988,35.989"/><path fill="#C9C9B6" stroke="none" stroke-width=".001" d="M 60.954,34.738 L 61.411,34.311 L 64.827,34.311 L 64.370,34.738 L 60.954,34.738 z"/><path fill="none" stroke="#494936" stroke-width=".001" d="M 60.954,34.738 L 61.411,34.311 L 64.827,34.311 L 64.370,34.738 L 60.954,34.738"/><path fill="#B7B79D" stroke="none" stroke-width=".001" d="M 60.954,34.738 L 64.370,34.738 L 64.370,35.380 L 60.954,35.380 L 60.954,34.738 z"/><path fill="none" stroke="#494936" stroke-width=".001" d="M 60.954,34.738 L 64.370,34.738 L 64.370,35.380 L 60.954,35.380 L 60.954,34.738"/><path fill="#7A7A5A" stroke="none" stroke-width=".001" d="M 64.370,35.380 L 64.827,34.924 L 64.827,34.311 L 64.370,34.738 L 64.370,35.380 z"/><path fill="none" stroke="#494936" stroke-width=".001" d="M 64.370,35.380 L 64.827,34.924 L 64.827,34.311 L 64.370,34.738 L 64.370,35.380"/><path fill="#000" stroke="none" stroke-width=".001" d="M 61.063,34.658 L 61.411,34.311 L 64.746,34.311 L 64.397,34.658 L 61.063,34.658 z"/><path fill="none" stroke="#000" stroke-width=".001" d="M 61.063,34.658 L 61.411,34.311 L 64.746,34.311 L 64.397,34.658 L 61.063,34.658"/><path fill="#C9C9B6" stroke="none" stroke-width=".001" d="M 60.954,31.902 L 61.331,31.555 L 64.746,31.555 L 64.370,31.902 L 60.954,31.902 z"/><path fill="none" stroke="#494936" stroke-width=".001" d="M 60.954,31.902 L 61.331,31.555 L 64.746,31.555 L 64.370,31.902 L 60.954,31.902"/><path fill="#B7B79D" stroke="none" stroke-width=".001" d="M 60.954,31.902 L 64.396,31.902 L 64.396,34.605 L 60.954,34.605 L 60.954,31.902 z"/><path fill="none" stroke="#494936" stroke-width=".001" d="M 60.954,31.902 L 64.395,31.902 L 64.395,34.603 L 60.954,34.603 L 60.954,31.902"/><path fill="#FFF" stroke="none" stroke-width=".001" d="M 61.252,32.250 L 64.102,32.250 L 64.102,34.337 L 61.252,34.337 L 61.252,32.250 z"/><path fill="none" stroke="#494936" stroke-width=".001" d="M 61.252,32.250 L 64.101,32.250 L 64.101,34.336 L 61.252,34.336 L 61.252,32.250"/><path fill="#7A7A5A" stroke="none" stroke-width=".001" d="M 64.370,34.576 L 64.746,34.203 L 64.746,31.555 L 64.370,31.902 L 64.370,34.576 z"/><path fill="none" stroke="#494936" stroke-width=".001" d="M 64.370,34.576 L 64.746,34.203 L 64.746,31.555 L 64.370,31.902 L 64.370,34.576"/><path fill="#C9C9B6" stroke="none" stroke-width=".001" d="M 60.283,35.914 L 60.821,35.246 L 64.530,35.246 L 63.993,35.914 L 60.283,35.914 z"/><path fill="none" stroke="#494936" stroke-width=".001" d="M 60.287,35.910 L 60.821,35.246 L 64.530,35.246 L 63.993,35.914 L 60.287,35.914"/><path fill="#7A7A5A" stroke="none" stroke-width=".001" d="M 63.993,36.049 L 64.530,35.487 L 64.530,35.246 L 63.993,35.914 L 63.993,36.049 z"/><path fill="none" stroke="#494936" stroke-width=".001" d="M 63.995,36.046 L 64.530,35.487 L 64.530,35.246 L 63.993,35.914 L 63.993,36.046"/><path fill="#B7B79D" stroke="none" stroke-width=".001" d="M 60.283,35.914 L 63.993,35.914 L 63.993,36.049 L 60.283,36.049 L 60.283,35.914 z"/><path fill="none" stroke="#494936" stroke-width=".001" d="M 60.287,35.914 L 63.993,35.914 L 63.993,36.046"/><path fill="#C9C9B6" stroke="none" stroke-width=".001" d="M 69.212,34.669 L 69.670,34.242 L 73.086,34.242 L 72.629,34.669 L 69.212,34.669 z"/><path fill="none" stroke="#494936" stroke-width=".001" d="M 69.212,34.669 L 69.670,34.242 L 73.086,34.242 L 72.629,34.669 L 69.212,34.669"/><path fill="#B7B79D" stroke="none" stroke-width=".001" d="M 69.212,34.669 L 72.629,34.669 L 72.629,35.310 L 69.212,35.310 L 69.212,34.669 z"/><path fill="none" stroke="#494936" stroke-width=".001" d="M 69.212,34.669 L 72.629,34.669 L 72.629,35.310 L 69.212,35.310 L 69.212,34.669"/><path fill="#7A7A5A" stroke="none" stroke-width=".001" d="M 72.629,35.310 L 73.086,34.855 L 73.086,34.242 L 72.629,34.669 L 72.629,35.310 z"/><path fill="none" stroke="#494936" stroke-width=".001" d="M 72.629,35.310 L 73.086,34.855 L 73.086,34.242 L 72.629,34.669 L 72.629,35.310"/><path fill="#000" stroke="none" stroke-width=".001" d="M 69.321,34.588 L 69.670,34.242 L 73.005,34.242 L 72.655,34.588 L 69.321,34.588 z"/><path fill="none" stroke="#000" stroke-width=".001" d="M 69.321,34.588 L 69.670,34.242 L 73.005,34.242 L 72.655,34.588 L 69.321,34.588"/><path fill="#C9C9B6" stroke="none" stroke-width=".001" d="M 69.212,31.833 L 69.590,31.486 L 73.005,31.486 L 72.629,31.833 L 69.212,31.833 z"/><path fill="none" stroke="#494936" stroke-width=".001" d="M 69.212,31.833 L 69.590,31.486 L 73.005,31.486 L 72.629,31.833 L 69.212,31.833"/><path fill="#B7B79D" stroke="none" stroke-width=".001" d="M 69.212,31.833 L 72.654,31.833 L 72.654,34.535 L 69.212,34.535 L 69.212,31.833 z"/><path fill="none" stroke="#494936" stroke-width=".001" d="M 69.212,31.833 L 72.654,31.833 L 72.654,34.534 L 69.212,34.534 L 69.212,31.833"/><path fill="#FFF" stroke="none" stroke-width=".001" d="M 69.510,32.181 L 72.360,32.181 L 72.360,34.268 L 69.510,34.268 L 69.510,32.181 z"/><path fill="none" stroke="#494936" stroke-width=".001" d="M 69.510,32.181 L 72.359,32.181 L 72.359,34.267 L 69.510,34.267 L 69.510,32.181"/><path fill="#7A7A5A" stroke="none" stroke-width=".001" d="M 72.629,34.507 L 73.005,34.133 L 73.005,31.486 L 72.629,31.833 L 72.629,34.507 z"/><path fill="none" stroke="#494936" stroke-width=".001" d="M 72.629,34.507 L 73.005,34.133 L 73.005,31.486 L 72.629,31.833 L 72.629,34.507"/><path fill="#C9C9B6" stroke="none" stroke-width=".001" d="M 68.542,35.845 L 69.079,35.177 L 72.788,35.177 L 72.251,35.845 L 68.542,35.845 z"/><path fill="none" stroke="#494936" stroke-width=".001" d="M 68.545,35.841 L 69.079,35.177 L 72.788,35.177 L 72.251,35.845 L 68.545,35.845"/><path fill="#7A7A5A" stroke="none" stroke-width=".001" d="M 72.251,35.980 L 72.788,35.417 L 72.788,35.177 L 72.251,35.845 L 72.251,35.980 z"/><path fill="none" stroke="#494936" stroke-width=".001" d="M 72.254,35.976 L 72.788,35.417 L 72.788,35.177 L 72.251,35.845 L 72.251,35.976"/><path fill="#B7B79D" stroke="none" stroke-width=".001" d="M 68.542,35.845 L 72.251,35.845 L 72.251,35.980 L 68.542,35.980 L 68.542,35.845 z"/><path fill="none" stroke="#494936" stroke-width=".001" d="M 68.545,35.845 L 72.251,35.845 L 72.251,35.976"/><text x="65.864" y="33.604" fill="#000" font-family="sans" font-size="2.82" font-style="normal" font-weight="400" text-anchor="start">...</text><path fill="none" stroke="#000" stroke-width=".1" d="M 54.542,13.486 C 54.542,11.486 64.542,14.486 64.542,11.486"/><path fill="none" stroke="#000" stroke-width=".1" d="M 73.542,13.486 C 73.542,11.486 64.542,14.486 64.542,11.486"/><text x="59.542" y="10.486" fill="#000" font-family="sans" font-size="1.41" font-style="normal" font-weight="400" text-anchor="start">Replicated servers</text><path fill="#C9C9B6" stroke="none" stroke-width=".001" d="M 96.671,32.183 L 97.128,31.756 L 100.544,31.756 L 100.087,32.183 L 96.671,32.183 z"/><path fill="none" stroke="#494936" stroke-width=".001" d="M 96.671,32.183 L 97.128,31.756 L 100.544,31.756 L 100.087,32.183 L 96.671,32.183"/><path fill="#B7B79D" stroke="none" stroke-width=".001" d="M 96.671,32.183 L 100.087,32.183 L 100.087,32.824 L 96.671,32.824 L 96.671,32.183 z"/><path fill="none" stroke="#494936" stroke-width=".001" d="M 96.671,32.183 L 100.087,32.183 L 100.087,32.824 L 96.671,32.824 L 96.671,32.183"/><path fill="#7A7A5A" stroke="none" stroke-width=".001" d="M 100.087,32.824 L 100.544,32.369 L 100.544,31.756 L 100.087,32.183 L 100.087,32.824 z"/><path fill="none" stroke="#494936" stroke-width=".001" d="M 100.087,32.824 L 100.544,32.369 L 100.544,31.756 L 100.087,32.183 L 100.087,32.824"/><path fill="#000" stroke="none" stroke-width=".001" d="M 96.779,32.102 L 97.128,31.756 L 100.463,31.756 L 100.113,32.102 L 96.779,32.102 z"/><path fill="none" stroke="#000" stroke-width=".001" d="M 96.779,32.102 L 97.128,31.756 L 100.463,31.756 L 100.113,32.102 L 96.779,32.102"/><path fill="#C9C9B6" stroke="none" stroke-width=".001" d="M 96.671,29.347 L 97.048,29.000 L 100.463,29.000 L 100.087,29.347 L 96.671,29.347 z"/><path fill="none" stroke="#494936" stroke-width=".001" d="M 96.671,29.347 L 97.048,29.000 L 100.463,29.000 L 100.087,29.347 L 96.671,29.347"/><path fill="#B7B79D" stroke="none" stroke-width=".001" d="M 96.671,29.347 L 100.113,29.347 L 100.113,32.049 L 96.671,32.049 L 96.671,29.347 z"/><path fill="none" stroke="#494936" stroke-width=".001" d="M 96.671,29.347 L 100.112,29.347 L 100.112,32.048 L 96.671,32.048 L 96.671,29.347"/><path fill="#FFF" stroke="none" stroke-width=".001" d="M 96.969,29.695 L 99.818,29.695 L 99.818,31.782 L 96.969,31.782 L 96.969,29.695 z"/><path fill="none" stroke="#494936" stroke-width=".001" d="M 96.969,29.695 L 99.818,29.695 L 99.818,31.780 L 96.969,31.780 L 96.969,29.695"/><path fill="#7A7A5A" stroke="none" stroke-width=".001" d="M 100.087,32.021 L 100.463,31.647 L 100.463,29.000 L 100.087,29.347 L 100.087,32.021 z"/><path fill="none" stroke="#494936" stroke-width=".001" d="M 100.087,32.021 L 100.463,31.647 L 100.463,29.000 L 100.087,29.347 L 100.087,32.021"/><path fill="#C9C9B6" stroke="none" stroke-width=".001" d="M 96.000,33.359 L 96.538,32.691 L 100.247,32.691 L 99.710,33.359 L 96.000,33.359 z"/><path fill="none" stroke="#494936" stroke-width=".001" d="M 96.004,33.355 L 96.538,32.691 L 100.247,32.691 L 99.710,33.359 L 96.004,33.359"/><path fill="#7A7A5A" stroke="none" stroke-width=".001" d="M 99.710,33.494 L 100.247,32.931 L 100.247,32.691 L 99.710,33.359 L 99.710,33.494 z"/><path fill="none" stroke="#494936" stroke-width=".001" d="M 99.712,33.490 L 100.247,32.931 L 100.247,32.691 L 99.710,33.359 L 99.710,33.490"/><path fill="#B7B79D" stroke="none" stroke-width=".001" d="M 96.000,33.359 L 99.710,33.359 L 99.710,33.494 L 96.000,33.494 L 96.000,33.359 z"/><path fill="none" stroke="#494936" stroke-width=".001" d="M 96.004,33.359 L 99.710,33.359 L 99.710,33.490"/><path fill="#C9C9B6" stroke="none" stroke-width=".001" d="M 87.671,32.183 L 88.128,31.756 L 91.544,31.756 L 91.087,32.183 L 87.671,32.183 z"/><path fill="none" stroke="#494936" stroke-width=".001" d="M 87.671,32.183 L 88.128,31.756 L 91.544,31.756 L 91.087,32.183 L 87.671,32.183"/><path fill="#B7B79D" stroke="none" stroke-width=".001" d="M 87.671,32.183 L 91.087,32.183 L 91.087,32.824 L 87.671,32.824 L 87.671,32.183 z"/><path fill="none" stroke="#494936" stroke-width=".001" d="M 87.671,32.183 L 91.087,32.183 L 91.087,32.824 L 87.671,32.824 L 87.671,32.183"/><path fill="#7A7A5A" stroke="none" stroke-width=".001" d="M 91.087,32.824 L 91.544,32.369 L 91.544,31.756 L 91.087,32.183 L 91.087,32.824 z"/><path fill="none" stroke="#494936" stroke-width=".001" d="M 91.087,32.824 L 91.544,32.369 L 91.544,31.756 L 91.087,32.183 L 91.087,32.824"/><path fill="#000" stroke="none" stroke-width=".001" d="M 87.779,32.102 L 88.128,31.756 L 91.463,31.756 L 91.113,32.102 L 87.779,32.102 z"/><path fill="none" stroke="#000" stroke-width=".001" d="M 87.779,32.102 L 88.128,31.756 L 91.463,31.756 L 91.113,32.102 L 87.779,32.102"/><path fill="#C9C9B6" stroke="none" stroke-width=".001" d="M 87.671,29.347 L 88.048,29.000 L 91.463,29.000 L 91.087,29.347 L 87.671,29.347 z"/><path fill="none" stroke="#494936" stroke-width=".001" d="M 87.671,29.347 L 88.048,29.000 L 91.463,29.000 L 91.087,29.347 L 87.671,29.347"/><path fill="#B7B79D" stroke="none" stroke-width=".001" d="M 87.671,29.347 L 91.113,29.347 L 91.113,32.049 L 87.671,32.049 L 87.671,29.347 z"/><path fill="none" stroke="#494936" stroke-width=".001" d="M 87.671,29.347 L 91.112,29.347 L 91.112,32.048 L 87.671,32.048 L 87.671,29.347"/><path fill="#FFF" stroke="none" stroke-width=".001" d="M 87.969,29.695 L 90.818,29.695 L 90.818,31.782 L 87.969,31.782 L 87.969,29.695 z"/><path fill="none" stroke="#494936" stroke-width=".001" d="M 87.969,29.695 L 90.818,29.695 L 90.818,31.780 L 87.969,31.780 L 87.969,29.695"/><path fill="#7A7A5A" stroke="none" stroke-width=".001" d="M 91.087,32.021 L 91.463,31.647 L 91.463,29.000 L 91.087,29.347 L 91.087,32.021 z"/><path fill="none" stroke="#494936" stroke-width=".001" d="M 91.087,32.021 L 91.463,31.647 L 91.463,29.000 L 91.087,29.347 L 91.087,32.021"/><path fill="#C9C9B6" stroke="none" stroke-width=".001" d="M 87.000,33.359 L 87.538,32.691 L 91.247,32.691 L 90.710,33.359 L 87.000,33.359 z"/><path fill="none" stroke="#494936" stroke-width=".001" d="M 87.004,33.355 L 87.538,32.691 L 91.247,32.691 L 90.710,33.359 L 87.004,33.359"/><path fill="#7A7A5A" stroke="none" stroke-width=".001" d="M 90.710,33.494 L 91.247,32.931 L 91.247,32.691 L 90.710,33.359 L 90.710,33.494 z"/><path fill="none" stroke="#494936" stroke-width=".001" d="M 90.712,33.490 L 91.247,32.931 L 91.247,32.691 L 90.710,33.359 L 90.710,33.490"/><path fill="#B7B79D" stroke="none" stroke-width=".001" d="M 87.000,33.359 L 90.710,33.359 L 90.710,33.494 L 87.000,33.494 L 87.000,33.359 z"/><path fill="none" stroke="#494936" stroke-width=".001" d="M 87.004,33.359 L 90.710,33.359 L 90.710,33.490"/><path fill="#C9C9B6" stroke="none" stroke-width=".001" d="M 100.671,23.183 L 101.128,22.756 L 104.544,22.756 L 104.087,23.183 L 100.671,23.183 z"/><path fill="none" stroke="#494936" stroke-width=".001" d="M 100.671,23.183 L 101.128,22.756 L 104.544,22.756 L 104.087,23.183 L 100.671,23.183"/><path fill="#B7B79D" stroke="none" stroke-width=".001" d="M 100.671,23.183 L 104.087,23.183 L 104.087,23.824 L 100.671,23.824 L 100.671,23.183 z"/><path fill="none" stroke="#494936" stroke-width=".001" d="M 100.671,23.183 L 104.087,23.183 L 104.087,23.824 L 100.671,23.824 L 100.671,23.183"/><path fill="#7A7A5A" stroke="none" stroke-width=".001" d="M 104.087,23.824 L 104.544,23.369 L 104.544,22.756 L 104.087,23.183 L 104.087,23.824 z"/><path fill="none" stroke="#494936" stroke-width=".001" d="M 104.087,23.824 L 104.544,23.369 L 104.544,22.756 L 104.087,23.183 L 104.087,23.824"/><path fill="#000" stroke="none" stroke-width=".001" d="M 100.779,23.102 L 101.128,22.756 L 104.463,22.756 L 104.113,23.102 L 100.779,23.102 z"/><path fill="none" stroke="#000" stroke-width=".001" d="M 100.779,23.102 L 101.128,22.756 L 104.463,22.756 L 104.113,23.102 L 100.779,23.102"/><path fill="#C9C9B6" stroke="none" stroke-width=".001" d="M 100.671,20.347 L 101.048,20.000 L 104.463,20.000 L 104.087,20.347 L 100.671,20.347 z"/><path fill="none" stroke="#494936" stroke-width=".001" d="M 100.671,20.347 L 101.048,20.000 L 104.463,20.000 L 104.087,20.347 L 100.671,20.347"/><path fill="#B7B79D" stroke="none" stroke-width=".001" d="M 100.671,20.347 L 104.113,20.347 L 104.113,23.049 L 100.671,23.049 L 100.671,20.347 z"/><path fill="none" stroke="#494936" stroke-width=".001" d="M 100.671,20.347 L 104.112,20.347 L 104.112,23.048 L 100.671,23.048 L 100.671,20.347"/><path fill="#FFF" stroke="none" stroke-width=".001" d="M 100.969,20.695 L 103.818,20.695 L 103.818,22.782 L 100.969,22.782 L 100.969,20.695 z"/><path fill="none" stroke="#494936" stroke-width=".001" d="M 100.969,20.695 L 103.818,20.695 L 103.818,22.780 L 100.969,22.780 L 100.969,20.695"/><path fill="#7A7A5A" stroke="none" stroke-width=".001" d="M 104.087,23.021 L 104.463,22.647 L 104.463,20.000 L 104.087,20.347 L 104.087,23.021 z"/><path fill="none" stroke="#494936" stroke-width=".001" d="M 104.087,23.021 L 104.463,22.647 L 104.463,20.000 L 104.087,20.347 L 104.087,23.021"/><path fill="#C9C9B6" stroke="none" stroke-width=".001" d="M 100.000,24.359 L 100.538,23.691 L 104.247,23.691 L 103.710,24.359 L 100.000,24.359 z"/><path fill="none" stroke="#494936" stroke-width=".001" d="M 100.004,24.355 L 100.538,23.691 L 104.247,23.691 L 103.710,24.359 L 100.004,24.359"/><path fill="#7A7A5A" stroke="none" stroke-width=".001" d="M 103.710,24.494 L 104.247,23.931 L 104.247,23.691 L 103.710,24.359 L 103.710,24.494 z"/><path fill="none" stroke="#494936" stroke-width=".001" d="M 103.712,24.490 L 104.247,23.931 L 104.247,23.691 L 103.710,24.359 L 103.710,24.490"/><path fill="#B7B79D" stroke="none" stroke-width=".001" d="M 100.000,24.359 L 103.710,24.359 L 103.710,24.494 L 100.000,24.494 L 100.000,24.359 z"/><path fill="none" stroke="#494936" stroke-width=".001" d="M 100.004,24.359 L 103.710,24.359 L 103.710,24.490"/><path fill="#C9C9B6" stroke="none" stroke-width=".001" d="M 84.671,23.183 L 85.128,22.756 L 88.544,22.756 L 88.087,23.183 L 84.671,23.183 z"/><path fill="none" stroke="#494936" stroke-width=".001" d="M 84.671,23.183 L 85.128,22.756 L 88.544,22.756 L 88.087,23.183 L 84.671,23.183"/><path fill="#B7B79D" stroke="none" stroke-width=".001" d="M 84.671,23.183 L 88.087,23.183 L 88.087,23.824 L 84.671,23.824 L 84.671,23.183 z"/><path fill="none" stroke="#494936" stroke-width=".001" d="M 84.671,23.183 L 88.087,23.183 L 88.087,23.824 L 84.671,23.824 L 84.671,23.183"/><path fill="#7A7A5A" stroke="none" stroke-width=".001" d="M 88.087,23.824 L 88.544,23.369 L 88.544,22.756 L 88.087,23.183 L 88.087,23.824 z"/><path fill="none" stroke="#494936" stroke-width=".001" d="M 88.087,23.824 L 88.544,23.369 L 88.544,22.756 L 88.087,23.183 L 88.087,23.824"/><path fill="#000" stroke="none" stroke-width=".001" d="M 84.779,23.102 L 85.128,22.756 L 88.463,22.756 L 88.113,23.102 L 84.779,23.102 z"/><path fill="none" stroke="#000" stroke-width=".001" d="M 84.779,23.102 L 85.128,22.756 L 88.463,22.756 L 88.113,23.102 L 84.779,23.102"/><path fill="#C9C9B6" stroke="none" stroke-width=".001" d="M 84.671,20.347 L 85.048,20.000 L 88.463,20.000 L 88.087,20.347 L 84.671,20.347 z"/><path fill="none" stroke="#494936" stroke-width=".001" d="M 84.671,20.347 L 85.048,20.000 L 88.463,20.000 L 88.087,20.347 L 84.671,20.347"/><path fill="#B7B79D" stroke="none" stroke-width=".001" d="M 84.671,20.347 L 88.113,20.347 L 88.113,23.049 L 84.671,23.049 L 84.671,20.347 z"/><path fill="none" stroke="#494936" stroke-width=".001" d="M 84.671,20.347 L 88.112,20.347 L 88.112,23.048 L 84.671,23.048 L 84.671,20.347"/><path fill="#FFF" stroke="none" stroke-width=".001" d="M 84.969,20.695 L 87.818,20.695 L 87.818,22.782 L 84.969,22.782 L 84.969,20.695 z"/><path fill="none" stroke="#494936" stroke-width=".001" d="M 84.969,20.695 L 87.818,20.695 L 87.818,22.780 L 84.969,22.780 L 84.969,20.695"/><path fill="#7A7A5A" stroke="none" stroke-width=".001" d="M 88.087,23.021 L 88.463,22.647 L 88.463,20.000 L 88.087,20.347 L 88.087,23.021 z"/><path fill="none" stroke="#494936" stroke-width=".001" d="M 88.087,23.021 L 88.463,22.647 L 88.463,20.000 L 88.087,20.347 L 88.087,23.021"/><path fill="#C9C9B6" stroke="none" stroke-width=".001" d="M 84.000,24.359 L 84.538,23.691 L 88.247,23.691 L 87.710,24.359 L 84.000,24.359 z"/><path fill="none" stroke="#494936" stroke-width=".001" d="M 84.004,24.355 L 84.538,23.691 L 88.247,23.691 L 87.710,24.359 L 84.004,24.359"/><path fill="#7A7A5A" stroke="none" stroke-width=".001" d="M 87.710,24.494 L 88.247,23.931 L 88.247,23.691 L 87.710,24.359 L 87.710,24.494 z"/><path fill="none" stroke="#494936" stroke-width=".001" d="M 87.712,24.490 L 88.247,23.931 L 88.247,23.691 L 87.710,24.359 L 87.710,24.490"/><path fill="#B7B79D" stroke="none" stroke-width=".001" d="M 84.000,24.359 L 87.710,24.359 L 87.710,24.494 L 84.000,24.494 L 84.000,24.359 z"/><path fill="none" stroke="#494936" stroke-width=".001" d="M 84.004,24.359 L 87.710,24.359 L 87.710,24.490"/><text x="36" y="41" fill="#000" font-family="sans" font-size="1.41" font-style="normal" font-weight="400" text-anchor="middle">Single server, multiple workers</text><text x="36" y="43.822" fill="#000" font-family="sans" font-size="1.41" font-style="normal" font-weight="400" text-anchor="middle">Workers communicate with the</text><text x="36" y="45.233" fill="#000" font-family="sans" font-size="1.41" font-style="normal" font-weight="400" text-anchor="middle">server; all data is managed by</text><text x="36" y="46.644" fill="#000" font-family="sans" font-size="1.41" font-style="normal" font-weight="400" text-anchor="middle">the server.</text><text x="64" y="41" fill="#000" font-family="sans" font-size="1.41" font-style="normal" font-weight="400" text-anchor="middle">Multiple servers, multiple workers</text><text x="64" y="43.822" fill="#000" font-family="sans" font-size="1.41" font-style="normal" font-weight="400" text-anchor="middle">Workers communicate with the</text><text x="64" y="45.233" fill="#000" font-family="sans" font-size="1.41" font-style="normal" font-weight="400" text-anchor="middle">replicated servers; all data is</text><text x="64" y="46.644" fill="#000" font-family="sans" font-size="1.41" font-style="normal" font-weight="400" text-anchor="middle">managed by all the servers.</text><text x="95" y="41" fill="#000" font-family="sans" font-size="1.41" font-style="normal" font-weight="400" text-anchor="middle">Decentralized</text><text x="95" y="43.822" fill="#000" font-family="sans" font-size="1.41" font-style="normal" font-weight="400" text-anchor="middle">Each node contains a worker and a</text><text x="95" y="45.233" fill="#000" font-family="sans" font-size="1.41" font-style="normal" font-weight="400" text-anchor="middle">server; nodes communicate in</text><text x="95" y="46.644" fill="#000" font-family="sans" font-size="1.41" font-style="normal" font-weight="400" text-anchor="middle">peer-to-peer; data is managed locally,</text><text x="95" y="48.056" fill="#000" font-family="sans" font-size="1.41" font-style="normal" font-weight="400" text-anchor="middle">only model updates are shared.</text><line x1="48" x2="48" y1="9" y2="39" stroke="#000" stroke-width=".1"/><line x1="81" x2="81" y1="9" y2="39" stroke="#000" stroke-width=".1"/><path fill="#FFF" stroke="#000" stroke-width=".1" d="M 32.863,23.242 C 31.800,23.213 29.738,23.829 30.028,25.149 C 30.318,26.469 31.703,26.762 32.283,26.381 C 32.863,25.999 31.381,28.229 34.217,28.815 C 37.052,29.402 38.503,28.463 38.084,27.789 C 37.665,27.114 40.565,29.373 41.918,28.082 C 43.272,26.791 40.533,25.559 41.113,25.735 C 41.693,25.911 43.465,25.677 42.885,23.477 C 42.305,21.277 37.085,22.978 37.665,22.656 C 38.245,22.333 36.795,20.720 34.990,21.042 C 33.186,21.365 33.058,21.951 32.864,23.241 L 32.863,23.242 z"/><path fill="#FFF" stroke="#000" stroke-width=".1" d="M 59.863,23.242 C 58.800,23.213 56.738,23.829 57.028,25.149 C 57.318,26.469 58.703,26.762 59.283,26.381 C 59.863,25.999 58.381,28.229 61.217,28.815 C 64.052,29.402 65.503,28.463 65.084,27.789 C 64.665,27.114 67.565,29.373 68.918,28.082 C 70.272,26.791 67.533,25.559 68.113,25.735 C 68.693,25.911 70.465,25.677 69.885,23.477 C 69.305,21.277 64.085,22.978 64.665,22.656 C 65.245,22.333 63.795,20.720 61.990,21.042 C 60.186,21.365 60.058,21.951 59.864,23.241 L 59.863,23.242 z"/><path fill="#FFF" stroke="#000" stroke-width=".1" d="M 91.982,21.962 C 91.246,21.936 89.818,22.475 90.019,23.630 C 90.220,24.785 91.179,25.042 91.581,24.708 C 91.982,24.375 90.956,26.325 92.919,26.838 C 94.882,27.352 95.886,26.530 95.596,25.940 C 95.306,25.350 97.314,27.326 98.251,26.197 C 99.188,25.067 97.292,23.990 97.693,24.144 C 98.095,24.298 99.322,24.092 98.920,22.167 C 98.519,20.242 94.905,21.731 95.306,21.449 C 95.708,21.166 94.704,19.755 93.455,20.037 C 92.205,20.319 92.117,20.832 91.983,21.961 L 91.982,21.962 z"/></g></svg>